<?xml version="1.0" standalone="no"?>
<!DOCTYPE svg PUBLIC "-//W3C//DTD SVG 1.1//EN" "http://www.w3.org/Graphics/SVG/1.1/DTD/svg11.dtd" >
<!--
2013-9-30: Created.
-->
<svg>
<metadata>
Created by iconfont
</metadata>
<defs>

<font id="iconfont" horiz-adv-x="1024" >
  <font-face
    font-family="iconfont"
    font-weight="500"
    font-stretch="normal"
    units-per-em="1024"
    ascent="896"
    descent="-128"
  />
    <missing-glyph />
    
    <glyph glyph-name="personalicon" unicode="&#58942;" d="M717.077214-11.343981 306.922786-11.343981c-20.719904 0-40.821731 9.090029-53.78395 24.345478-11.80793 13.905708-16.73515 31.324426-13.840216 49.067532 16.881482 103.876836 98.184183 183.698812 202.303542 198.710714 5.725398 0.829901 10.050913 5.692652 10.050913 11.335163 0 8.181333-4.780887 16.101723-12.814864 21.159926-38.528502 24.362874-61.558008 66.046229-61.558008 111.536282L377.280204 479.445952c0 72.715115 59.167564 131.899052 131.881656 131.899052l5.725398 0c72.730465 0 131.88268-59.182914 131.88268-131.899052l0-74.634838c0-45.490054-23.030529-87.205131-61.607126-111.536282-8.018627-5.074575-12.815887-12.978593-12.815887-21.159926 0-5.643534 4.310166-10.506285 10.019191-11.31879 104.136755-15.012925 185.453782-94.834902 202.337311-198.711737 2.894933-17.743106-2.032286-35.178197-13.856589-49.083905C757.883595-2.253952 737.780745-11.343981 717.077214-11.343981zM509.16186 583.045471c-57.101509 0-103.583147-46.465265-103.583147-103.59952l0-74.634838c0-35.730783 18.08489-68.470441 48.383964-87.597057C470.243479 306.935969 479.951585 290.069837 479.951585 272.114906c0-19.630083-14.750959-36.544311-34.316573-39.374776-90.37738-13.010315-163.743318-85.041862-178.396039-175.208441-1.984191-12.084223 2.959402-20.900006 7.465019-26.200732 7.644097-8.993838 19.695574-14.377452 32.217772-14.377452l410.154427 0c12.507872 0 24.558325 5.383614 32.202423 14.392802 4.504594 5.285377 9.465582 14.133905 7.481392 26.217105-14.652721 90.166579-88.018659 162.198126-178.413436 175.209464-19.548218 2.796696-34.3002 19.678178-34.3002 39.341007 0 17.954931 9.725502 34.821063 26.022677 45.099151 30.315446 19.126616 48.40136 51.866275 48.40136 87.597057L618.470405 479.445952c0 57.134255-46.482661 103.59952-103.58417 103.59952L509.16186 583.045471z"  horiz-adv-x="1024" />

    
    <glyph glyph-name="shunfeng4" unicode="&#58895;" d="M512 768c-265.094 0-480-214.886-480-480 0-265.132 214.906-480 480-480 265.132 0 480 214.868 480 480 0 265.094-214.868 480-480 480zM512-153.6c-243.878 0-441.6 197.703-441.6 441.6s197.722 441.6 441.6 441.6c243.897 0 441.6-197.722 441.6-441.6 0-243.897-197.703-441.6-441.6-441.6zM411.968 308.122c-31.603 13.459-149.587 21.831-142.099 82.349 4.954 39.955 56.237 76.877 115.123 73.671 61.843-3.379 102.259-20.506 121.268-46.886-0.787 1.459 0 62.323 0 62.323s-81.619 31.507-129.158 31.507c-47.558 0-174.336-29.299-152.16-137.741 22.195-108.403 180.979-100.972 212.678-133.191 31.68-32.217 32.141-96.384 13.555-118.234-17.434-20.506-83.424-38.477-119.866-28.915-87.322 22.791-110.899 60.595-109.306 59.846 0 0.749 0.787-68.889 0.787-68.889s81.408-44.697 144.806-44.697c63.398 0 146.861 35.885 145.805 131.885-0.806 71.769-41.108 111.283-101.434 136.973zM824.192 478.829c0 0-44.851 35.405-127.2 34.56-65.184-0.672-128.544-20.871-139.123-38.457-2.092 3.897-0.903-435.667-0.903-435.667h43.911v390.394c0 0 34.617 40.972 100.205 39.072 77.165-2.228 123.417-38.074 123.417-38.074l-0.307 48.173zM720.051 370.867c30.067 0 54.451-22.541 54.451-50.343s-24.384-50.343-54.451-50.343-54.451 22.541-54.451 50.343c0 27.802 24.384 50.343 54.451 50.343z"  horiz-adv-x="1024" />

    
    <glyph glyph-name="setting" unicode="&#58902;" d="M512 896C229.216 896 0 666.784 0 384c0-282.768 229.216-512 512-512 282.752 0 512 229.232 512 512C1024 666.784 794.752 896 512 896zM512-96C246.896-96 32 118.912 32 384 32 649.104 246.896 864 512 864c265.056 0 480-214.896 480-480C992 118.912 777.056-96 512-96zM512 480c-53.024 0-96-42.976-96-96 0-53.008 42.976-96 96-96 53.008 0 96 42.992 96 96C608 437.024 565.008 480 512 480zM512 320c-35.36 0-64 28.656-64 64 0 35.344 28.64 64 64 64 35.344 0 64-28.656 64-64C576 348.656 547.344 320 512 320zM810.24 490.88c1.744 8.16 0.32 16.16-3.536 22.72l-35.024 60.8c-3.84 6.56-10.08 11.84-17.92 14.4-7.84 2.56-16 1.92-23.04-1.28l-41.44-18.72c-29.44 28.16-65.6 49.44-105.92 61.12L578.88 675.2c-0.8 7.68-4.176 15.04-10.4 20.48-6.08 5.6-13.76 8.32-21.44 8.32l-70.08 0c-7.68 0-15.36-2.72-21.44-8.32-6.08-5.44-9.616-12.8-10.4-20.48l-4.48-45.28c-40.32-11.68-76.464-32.96-105.92-61.12l-41.44 18.72c-6.88 3.2-15.024 3.84-22.88 1.28-8-2.56-14.08-7.84-17.92-14.4l-35.024-60.8c-3.84-6.56-5.456-14.56-3.68-22.72 1.76-8 6.4-14.72 12.64-19.2l36.96-26.56c-4.8-19.52-7.36-40-7.36-61.12 0-21.12 2.56-41.6 7.36-61.12l-36.96-26.56c-6.24-4.464-10.88-11.184-12.64-19.184-1.76-8.176-0.16-16.176 3.68-22.72l35.024-60.816c3.84-6.544 9.92-11.824 17.92-14.384 7.84-2.56 15.84-1.92 22.88 1.28l41.44 18.72c29.456-28.16 65.616-49.44 105.92-61.12l4.48-45.28c0.8-7.664 4.336-15.024 10.4-20.48 6.08-5.6 13.744-8.32 21.44-8.32l70.08 0c7.664 0 15.36 2.72 21.44 8.32 6.24 5.456 9.616 12.816 10.4 20.48l4.464 45.28c40.336 11.68 76.48 32.976 105.92 61.12l41.44-18.72c7.04-3.2 15.2-3.84 23.04-1.28s14.08 7.84 17.92 14.384l35.024 60.816c3.84 6.544 5.28 14.544 3.536 22.72-1.76 8-6.4 14.72-12.64 19.184l-36.976 26.56c4.816 19.536 7.36 40 7.36 61.12 0 21.12-2.544 41.6-7.36 61.12l36.976 26.56C803.824 476.16 808.464 482.88 810.24 490.88zM771.984 501.44c-0.8-4-3.024-7.36-6.08-9.6l-16.464-12.16-26.736-19.52c4.176-11.36 7.376-23.2 9.616-35.36 2.384-13.28 3.664-26.88 3.664-40.8s-1.28-27.52-3.664-40.8c-2.24-12.16-5.44-24-9.616-35.36l26.736-19.536 16.464-12.16c3.04-2.24 5.28-5.6 6.08-9.6 0.976-4 0.176-8-1.744-11.2l-17.616-30.72c-1.92-3.2-4.96-5.92-8.96-7.2-3.84-1.28-7.84-0.96-11.36 0.64l-18.56 8.16-30.56 13.456c-0.16-0.336-0.48-0.64-0.96-0.976-0.336-0.32-0.64-0.8-0.976-1.12l-0.16-0.16c-0.16-0.16-0.32-0.32-0.32-0.48-3.2-3.824-6.4-7.36-10.096-10.88-3.824-4-7.824-7.84-12.16-11.36-0.464-0.48-0.8-0.8-1.28-1.12-20.64-17.6-44.464-31.52-70.384-40.64-11.36-4.16-23.2-7.36-35.36-9.44l-3.68-32.96L545.6 110.24c-0.48-3.824-2.256-7.36-5.28-10.24-3.04-2.72-6.88-4-10.56-4l-35.36 0c-3.84 0-7.68 1.28-10.72 4-3.04 2.88-4.8 6.4-5.28 10.24l-2.24 20.336-3.68 32.96c-12.16 2.08-24 5.28-35.36 9.44-25.92 9.12-49.76 23.04-70.4 40.64-0.464 0.336-0.8 0.64-1.264 1.12-4.336 3.52-8.336 7.36-12.176 11.36-4.464 4.336-8.64 8.976-12.32 13.616l-30.72-13.456-18.56-8.16c-3.36-1.6-7.52-1.92-11.36-0.64s-7.04 4-8.8 7.2l-17.76 30.72c-1.92 3.2-2.56 7.2-1.76 11.2 0.816 4 3.04 7.36 6.096 9.6l16.464 12.16 26.72 19.536c-4.16 11.36-7.36 23.2-9.6 35.36-2.4 13.28-3.68 26.88-3.68 40.8s1.28 27.52 3.68 40.8c2.24 12.16 5.44 24 9.6 35.36l-26.72 19.68-16.32 12c-3.2 2.24-5.44 5.6-6.256 9.6-0.8 4-0.16 8 1.76 11.2l17.76 30.72c1.744 3.2 4.96 5.92 8.8 7.2s8 0.96 11.36-0.64l18.72-8.16 30.56-13.28c0 0.16 0.32 0.48 0.64 0.64 0.16 0.32 0.48 0.48 0.8 0.8 0.48 0.48 0.8 1.12 1.28 1.6 2.88 3.68 6.24 7.04 9.6 10.4 3.84 4 7.84 7.84 12.176 11.36 0.464 0.48 0.8 0.8 1.264 1.12 20.64 17.6 44.48 31.52 70.4 40.64 11.36 4.16 23.2 7.36 35.36 9.44l3.68 32.96 2.24 20.32c0.48 3.84 2.24 7.36 5.28 10.24 3.024 2.72 6.88 4 10.72 4l35.36 0c3.68 0 7.52-1.28 10.56-4 3.024-2.88 4.8-6.4 5.28-10.24l2.24-20.32 3.68-32.96c12.16-2.08 24-5.28 35.36-9.44 25.92-9.12 49.744-23.04 70.384-40.64 0.48-0.32 0.816-0.64 1.28-1.12 2.256-1.76 4.16-3.52 6.256-5.6 2.08-1.76 4-3.68 5.904-5.76 3.376-3.2 6.56-6.4 9.28-9.92 0.176-0.16 0.336-0.48 0.48-0.64 1.12-0.96 1.92-1.92 2.72-2.88l30.4 13.28 18.72 8.16c3.52 1.6 7.52 1.92 11.36 0.64 4-1.28 7.024-4 8.96-7.2l17.616-30.72C772.16 509.44 772.96 505.44 771.984 501.44z"  horiz-adv-x="1024" />

    
    <glyph glyph-name="5601" unicode="&#59116;" d="M868.978 596.641c-21.244 39.887-51.497 75.583-89.921 106.096-77.601 61.627-180.368 95.567-289.373 95.567-109.004 0-211.77-33.94-289.372-95.567-38.422-30.513-68.675-66.209-89.92-106.096-22.321-41.913-33.641-86.521-33.641-132.587 0-39.471 8.387-78.111 24.93-114.843 15.801-35.086 38.648-67.584 67.904-96.589 54.405-53.933 129.199-93.123 211.86-111.241l102.318-181.786 112.343 181.391c83.206 17.904 158.543 57.125 213.328 111.289 29.362 29.030 52.293 61.57 68.156 96.717 16.608 36.797 25.029 75.511 25.029 115.062-0 46.066-11.318 90.674-33.641 132.587zM732.762 459.882c0-21.142-17.14-38.28-38.28-38.28-21.144 0-38.282 17.138-38.282 38.28s17.138 38.282 38.282 38.282c21.139 0 38.28-17.14 38.28-38.282zM330.922 459.882c0-21.142-17.138-38.28-38.281-38.28-21.142 0-38.281 17.138-38.281 38.28s17.139 38.282 38.281 38.282c21.143 0 38.281-17.14 38.281-38.282zM493.563 498.281c21.14 0 38.281-17.138 38.281-38.282 0-21.142-17.14-38.28-38.281-38.28-21.144 0-38.282 17.138-38.282 38.28 0 21.144 17.138 38.282 38.282 38.282z"  horiz-adv-x="1024" />

    
    <glyph glyph-name="fenxiangshuaxin" unicode="&#58896;" d="M534.831194 824.926378l33.982801 28.127008c10.303636 8.543699 11.743586 23.80716 3.199887 34.142795s-23.80716 11.775585-34.142795 3.231886l-88.028894-72.893428c-5.567804-4.607837-8.767691-11.455596-8.767691-18.655342s3.231886-14.047504 8.767691-18.655342l88.028894-72.893428c4.511841-3.743868 10.015647-5.567804 15.455455-5.567804 6.975754 0 13.88751 2.975895 18.687341 8.767691 8.543699 10.303636 7.103749 25.567098-3.199887 34.142795l-38.622637 31.966872c205.592746-9.599661 369.938947-180.889618 369.938947-390.162234 0-141.371012-76.25331-272.118399-199.000979-341.171962-11.679588-6.559769-15.807442-21.343247-9.247674-33.022835 4.447843-7.903721 12.671553-12.351564 21.151254-12.351564 4.031858 0 8.095714 0.991965 11.871581 3.10389 137.979132 77.66126 223.704107 224.600075 223.704107 383.442471 0 234.39173-183.609522 426.480952-413.777401 438.480529zM490.992741 60.697342c-10.335635 8.543699-25.599097 7.07175-34.142795-3.199887-8.543699-10.335635-7.103749-25.599097 3.231886-34.142795l32.670847-27.039046c-205.080764 10.143642-368.850986 181.241605-368.850986 390.098236 0 140.251051 75.357341 270.486456 196.665061 339.860009 11.61559 6.655765 15.647448 21.471242 9.023682 33.086833s-21.471242 15.647448-33.086833 9.023682c-136.347189-78.013247-221.0802-224.344084-221.0802-381.938524 0-237.943605 189.209324-432.144752 424.241031-438.768519l-39.582603-32.766844c-10.303636-8.543699-11.743586-23.80716-3.231886-34.142795 4.767832-5.759797 11.711587-8.767691 18.687341-8.767691 5.439808 0 10.911615 1.823936 15.455455 5.567804l88.028894 72.893428c5.567804 4.607837 8.767691 11.455596 8.767691 18.655342s-3.231886 14.047504-8.767691 18.655342l-88.028894 72.893428z"  horiz-adv-x="1024" />

    
    <glyph glyph-name="gouwuche" unicode="&#58963;" d="M391.075907 303.093319c9.688663 4.299933 20.980847 5.502317 31.746028 6.77838 134.465504 15.985066 268.960685 31.719422 403.441539 47.581692 59.44181 7.011694 92.640933 42.044582 94.380554 101.465926 1.139963 38.904055 0.581238 77.873602 0.207731 116.810403-0.497327 51.817156-10.743692 62.096267-63.767326 62.199621-146.411581 0.283456-292.824185 0.132006-439.236789-0.002047-10.852162-0.011256-22.25998 0.664126-32.432667-2.316765-18.136056-5.310959-28.998451-18.680455-28.326139-38.141692 0.666172-19.244296 11.037381-32.593326 30.55183-35.756365 13.727653-2.222621 27.872814-2.526543 41.832757-2.547009 119.933533-0.187265 239.867066-0.011256 359.799576-0.232291 16.48137-0.031722 32.959669-1.65264 53.613058-2.761903 0-27.622104 1.01819-50.755987-0.236384-73.768097-1.935072-35.480073-11.598152-45.274136-48.381917-49.754171C647.791709 414.815843 501.270635 397.346983 351.562984 379.358283c-6.339382 21.62246-12.698207 42.144866-18.3663 62.854537-24.644283 90.042759-49.362244 180.073238-73.40073 270.28075-5.650697 21.204951-14.134929 39.038108-38.609343 40.102347-27.967982 1.218758-56.139601 1.697665-84.021625-0.303922-21.456684-1.540076-35.524075-18.003026-34.428114-37.041638 1.222851-21.234627 13.237489-34.92851 34.404578-37.98001 15.259542-2.200108 30.896684-1.769296 50.640354-2.715855 4.725628-14.882965 8.888438-26.499537 12.110829-38.373982 31.787984-117.124558 63.596434-234.245022 95.034447-351.463724 19.698644-73.443709 46.433542-94.891184 121.810277-94.995561 144.855132-0.202615 289.709241-0.093121 434.564373-0.002047 12.437264 0.007163 25.113981-0.529049 37.255509 1.602498 19.119453 3.355421 29.622668 16.502859 31.332612 35.516912 1.677199 18.635429-12.228509 35.266202-32.893154 38.616506-12.181437 1.971911-24.839735 1.302669-37.284161 1.309832-138.624221 0.075725-277.248442-0.011256-415.872662 0.141216-13.95892 0.013303-28.260647-0.221034-41.708937 2.775206-5.505387 1.225921-12.431124 10.56973-12.720719 16.512069C379.13597 291.831834 385.470235 300.605661 391.075907 303.093319zM833.169767 111.118006c-25.285896 0.137123-48.251957-21.859867-48.992831-46.923706-0.780783-26.440186 24.426319-51.116191 50.859341-49.795103 24.692379 1.237177 47.246047 25.032116 46.775326 49.345871C881.329627 88.634946 858.386078 110.978836 833.169767 111.118006zM385.798716 110.945067c-25.814945 0.426719-48.053436-20.579711-49.024553-46.305629-0.946558-25.073048 20.208251-48.476061 45.314045-50.125631 26.424836-1.738597 51.847855 22.279423 51.643194 48.786123C433.536974 88.441541 411.323043 110.522442 385.798716 110.945067z"  horiz-adv-x="1024" />

    
    <glyph glyph-name="zfb" unicode="&#58885;" d="M540.0064 285.7728c0 0-86.8608-103.1936-189.184-103.1936-102.3488 0-123.8528 48.9984-123.8528 84.2496 0 35.2512 21.2736 73.5744 108.3648 79.104C422.4 351.5136 540.0064 285.7728 540.0064 285.7728zM461.952 573.4656 461.952 657.3568l92.8 0 0-83.8912 189.3888 0 0-36.864-189.3888-1.28 0-52.1216 156.3904-1.28c0 0-2.816-29.2352-22.656-82.4064-19.8144-53.1712-38.4-80.3072-38.4-80.3072l303.4368-99.5584c0 0-10.9056-28.4672-24.0128-53.4528-13.1328-24.96-31.3856-51.84-31.3856-51.84l-289.9968 137.472c0 0-54.8352-60.6464-110.7712-87.3472-55.936-26.7008-120.1664-43.2896-189.7216-26.9056-69.5552 16.4096-118.912 60.8768-110.4384 143.0016 8.4992 82.1248 96.2816 110.4384 168.4736 110.4384 72.2176 0 209.2032-46.7968 209.2032-46.7968s11.52 25.7792 22.6816 55.2704c11.1872 29.4912 14.3616 53.1712 14.3616 53.1712L320.2304 452.6592l0 29.2352 141.7216 0L461.952 537.856l-176.6912-1.28 0 36.864L461.952 573.44zM512-128c282.7776 0 512 229.2224 512 512C1024 666.7776 794.7776 896 512 896S0 666.7776 0 384C0 101.2224 229.2224-128 512-128z"  horiz-adv-x="1024" />

    
    <glyph glyph-name="wb" unicode="&#58918;" d="M176.973644 711.835583 176.973644 711.835583 176.973644 711.835583 176.973644 711.835583zM176.973644 711.835583M650.681526 395.471262c-6.605442 1.324158-10.896164 3.306302-12.869099 5.939269-1.972934 2.63706-2.303462 5.060249-0.99363 7.269567l1.987261 3.298116c0.435928 0.437975 0.880043 1.098008 1.329275 1.987261 0.450255 0.88823 1.333368 2.761903 2.6432 5.621021 1.309832 2.861164 2.303462 5.720282 2.980891 8.581446 0.675382 2.859118 1.224898 6.381337 1.645476 10.56666 0.424672 4.183276 0.310062 8.149611-0.335644 11.900028-0.648776 3.747347-1.972934 7.819083-3.974521 12.215206-1.99954 4.396123-4.756327 8.362458-8.263198 11.899004-6.170536 6.170536-14.208607 10.136871-24.114211 11.900028-9.905604 1.759063-19.811208 1.873674-29.717835 0.335644-9.902534-1.534959-19.258623-3.51608-28.066219-5.940292-8.803503-2.420119-16.066931-4.731768-21.787212-6.92983l-8.581446-3.975545c-4.411473-1.324158-8.04421-2.203178-10.906397-2.642177-2.861164-0.435928-5.065366-0.324388-6.614651 0.338714-1.549286 0.661056-2.761903 1.324158-3.635807 1.984191-0.873903 0.664126-1.204431 2.204202-0.99056 4.630461 0.209778 2.423189 0.429789 4.51585 0.654916 6.275937 0.222057 1.759063 0.771573 4.51585 1.645476 8.263198 0.876973 3.749394 1.538029 6.722098 1.987261 8.92016 0 5.282307-0.329505 10.233062-0.99363 14.857383-0.661056 4.621251-2.092661 9.792017-4.290723 15.511275-2.198062 5.720282-5.389754 10.341532-9.573029 13.863752-4.185322 3.52222-9.469676 6.383384-15.851013 8.581446-6.383384 2.198062-14.640442 2.859118-24.771173 1.985214-10.130731-0.873903-21.577434-3.514033-34.345226-7.924483-15.412015-5.285377-31.04404-13.097296-46.896076-23.438828-15.851013-10.341532-29.609365-21.12718-41.275056-32.356942-11.665691-11.226692-22.345937-22.12695-32.04074-32.69361-9.692756-10.56973-17.181311-19.156292-22.465664-25.764803l-7.269567-10.56666c-14.526855-18.934235-25.312502-37.872562-32.356942-56.80782-7.045463-18.937305-10.347672-33.245172-9.912767-42.925648l0-13.863752c2.64934-21.135366 9.143241-40.073694 19.484773-56.809867 10.341532-16.739243 22.669302-30.278607 36.986379-40.62014 14.317077-10.341532 31.15865-19.148106 50.531883-26.420743 19.373233-7.269567 37.977963-12.55392 55.816237-15.851013 17.839297-3.298116 36.661991-5.605671 56.471153-6.930853 32.591279-2.651386 66.385966-0.119727 101.382015 7.584746 35.000142 7.707542 67.582211 21.029966 97.749278 39.965224 30.167067 18.937305 51.414997 41.61377 63.74072 68.034513 7.482415 15.412015 11.335163 29.948079 11.56336 43.601031 0.225127 13.652951-2.086521 24.769127-6.933923 33.348526-4.848425 8.581446-11.124362 16.175401-18.832927 22.783913-7.704472 6.608511-14.968923 11.45489-21.787212 14.541181-6.822382 3.084245-12.872169 5.062296-18.154475 5.940292L650.680503 395.471262zM449.246771 190.065056c-47.550992-2.198062-87.944981 7.05365-121.185037 27.750017-33.236985 20.697391-49.856501 46.899146-49.856501 78.598102 0 31.266098 16.514115 58.233286 49.541323 80.903611s73.532737 35.113729 121.523751 37.323047c47.988967 2.212388 88.49859-5.712095 121.521704-23.774473 33.026184-18.061354 49.541323-42.718941 49.541323-73.971735 0-31.702026-16.845667-60.21236-50.532907-85.531002-33.689287-25.318642-73.865311-39.076994-120.530121-41.275056L449.246771 190.065056zM430.101735 373.026064c-12.764722-1.324158-24.213471-4.296863-34.344203-8.918114-10.130731-4.621251-18.058284-9.905604-23.775496-15.851013-5.720282-5.945409-10.56666-12.328793-14.541181-19.148106-3.975545-6.819313-6.729262-13.532201-8.263198-20.138666-1.534959-6.608511-2.52859-12.661368-2.981914-18.153452-0.449231-5.495154-0.669242-9.785877-0.654916-12.872169l0.654916-5.285377 0-2.642177c0-1.324158 0.444115-3.963265 1.333368-7.924483 0.88516-3.957125 2.097778-7.593955 3.635807-10.905374 1.534959-3.311419 4.063549-6.945179 7.585769-10.905374 3.52222-3.958148 7.707542-7.264451 12.55392-9.912767 29.069059-14.08888 56.149834-18.378579 81.243349-12.869099 25.093515 5.507434 45.346791 18.166755 60.761875 37.977963 6.170536 7.479345 10.242272 16.731056 12.215206 27.747971 1.972934 11.019984 1.528819 22.135136-1.333368 33.350572-2.858094 11.215436-7.812943 21.451568-14.857383 30.709419-7.04137 9.256828-17.496489 16.414855-31.363312 21.475104-13.863752 5.057179-29.829376 6.485715-47.889707 4.287653L430.101735 373.026064zM406.323169 248.184755c-2.648316-0.435928-5.179976-0.549515-7.587815-0.335644-2.408863 0.210801-4.612041 0.654916-6.614651 1.329275-1.99954 0.675382-3.980661 1.443885-5.939269 2.303462-1.958608 0.859577-3.607154 2.073218-4.943592 3.63683-1.338485 1.563612-2.551102 3.106758-3.635807 4.626367-1.087774 1.52268-1.966795 3.282766-2.642177 5.285377-0.678452 2.00261-1.00898 4.094248-0.99363 6.274914 0 4.849448 1.324158 9.581216 3.971451 14.202467 2.651386 4.621251 6.285147 8.587586 10.908444 11.899004 4.621251 3.311419 9.792017 5.185093 15.512299 5.621021 3.957125 0.438998 7.812943 0.324388 11.56029-0.335644 3.747347-0.661056 6.939039-1.760087 9.576099-3.297093 2.632967-1.538029 4.945639-3.298116 6.930853-5.285377 1.987261-1.984191 3.416819-4.296863 4.290723-6.933923 0.873903-2.632967 1.318018-5.494131 1.332345-8.578376 0-4.849448-1.432629-9.470699-4.290723-13.866822-2.861164-4.396123-6.713912-8.137331-11.56029-11.221576-4.849448-3.086291-10.130731-4.845355-15.854083-5.284353L406.323169 248.184755zM462.458677 295.737794c-3.086291-2.198062-6.277984-3.191692-9.576099-2.978844-3.297093 0.210801-5.608741 1.64036-6.932899 4.288676l-1.330298 2.642177c-0.437975 0.889253-0.654916 1.768273-0.654916 2.642177l0 2.6432c0 1.324158 0.216941 2.423189 0.654916 3.297093l1.330298 2.642177c0.438998 0.889253 1.099031 1.552356 1.987261 1.987261l1.984191 2.6432c3.52222 2.648316 6.933923 3.746324 10.229992 3.297093 3.298116-0.450255 5.605671-2.212388 6.933923-5.285377 1.324158-1.759063 1.873674-3.741207 1.645476-5.939269-0.225127-2.194992-0.886183-4.288676-1.984191-6.275937-1.099031-1.987261-2.52859-3.860934-4.291746-5.621021L462.458677 295.737794zM696.924733 433.78794c2.648316 0 5.071506 0.664126 7.269567 1.987261 2.198062 1.324158 3.957125 2.972705 5.284353 4.945639 1.324158 1.971911 2.204202 4.062526 2.6432 6.274914 0.435928 0.435928 0.654916 1.099031 0.654916 1.988284 5.281283 50.201355-12.328793 78.822207-52.838416 85.866646-11.889795 2.198062-22.900569 2.418073-33.031301 0.654916-3.086291 0-5.728468-0.765433-7.927553-2.303462-2.196015-1.533936-4.071735-3.51301-5.621021-5.936199-1.549286-2.426259-2.317789-4.953825-2.303462-7.587815 0-4.41045 1.544169-8.151657 4.630461-11.223622 3.083222-3.068895 6.825452-4.612041 11.221576-4.626367 34.350342 7.93267 52.843532-3.078105 55.476499-33.032324 0.889253-7.482415 0.444115-14.526855-1.329275-21.135366 0-4.411473 1.544169-8.15268 4.627391-11.221576 3.086291-3.071965 6.827499-4.615111 11.223622-4.630461L696.924733 433.78794zM685.701111 620.026598c-19.373233 4.41045-45.354977 3.530406-77.943187-2.6432-0.438998 0-0.880043-0.215918-1.332345-0.654916l-0.654916-1.329275-0.654916-0.654916c-4.846378-1.324158-8.812713-4.079922-11.900028-8.266267-3.083222-4.183276-4.626367-8.699126-4.626367-13.544481 0-6.608511 2.203178-12.109806 6.614651-16.505929 4.41045-4.396123 9.692756-6.602372 15.851013-6.614651l1.987261 0c0.435928 0 1.429559 0.215918 2.978844 0.654916 1.549286 0.435928 3.197832 0.766456 4.945639 0.99056 1.747807 0.228197 3.621481 0.669242 5.621021 1.333368 2.00261 0.660032 3.761674 1.324158 5.285377 1.984191 1.52268 0.664126 4.494361 0.99363 8.918114 0.99363 4.424776 0 9.82067-0.330528 16.189727-0.99363 6.369058-0.661056 13.413498-2.309602 21.135366-4.943592 7.719822-2.636037 15.427364-5.939269 23.12058-9.914814 7.693216-3.971451 15.397688-9.472745 23.12058-16.504906 7.722892-7.030114 14.436804-15.172561 20.141736-24.430412 11.45489-25.981744 13.659091-51.083445 6.614651-75.303057 0-0.435928-0.113587-0.880043-0.338714-1.330298-0.225127-0.452301-0.555655-1.552356-0.99363-3.297093-0.434905-1.747807-0.880043-3.396353-1.330298-4.945639-0.449231-1.549286-0.89437-3.53143-1.329275-5.940292-0.438998-2.407839-0.657986-4.500501-0.657986-6.274914 0-3.960195 1.099031-7.263427 3.300162-9.912767 2.198062-2.651386 4.951779-4.524037 8.263198-5.623068 3.312442-1.099031 7.16519-1.648546 11.56029-1.645476 12.328793 0 19.593244 7.487531 21.791305 22.465664 5.281283 17.175171 8.253988 33.5757 8.918114 49.201585 0.663102 15.622816-0.435928 29.381168-3.297093 41.275056-2.861164 11.890818-7.148817 23.00597-12.870122 33.350572-5.719258 10.341532-12.328793 19.148106-19.823488 26.417673-7.497765 7.269567-15.865339 13.878079-25.107841 19.823488-9.244548 5.945409-18.162662 10.68127-26.756387 14.20349-8.595772 3.52222-17.513886 6.380314-26.756387 8.578376L685.701111 620.025575zM685.701111 620.026598M511.61626 811.530167c57.661258 0 113.586988-11.288091 166.223812-33.552164 50.851155-21.50785 96.52438-52.303226 135.7518-91.530646s70.022797-84.900645 91.530646-135.7518c22.26305-52.636824 33.552164-108.562555 33.552164-166.223812s-11.288091-113.586988-33.552164-166.223812c-21.50785-50.851155-52.303226-96.52438-91.530646-135.7518-39.22742-39.22742-84.900645-70.022797-135.7518-91.530646-52.636824-22.26305-108.562555-33.552164-166.223812-33.552164s-113.586988 11.288091-166.223812 33.552164c-50.851155 21.50785-96.52438 52.303226-135.7518 91.530646-39.22742 39.226397-70.022797 84.900645-91.530646 135.7518-22.26305 52.636824-33.552164 108.562555-33.552164 166.223812s11.288091 113.586988 33.552164 166.223812c21.50785 50.851155 52.303226 96.52438 91.530646 135.7518s84.900645 70.022797 135.7518 91.530646C398.029272 800.241053 453.955003 811.530167 511.61626 811.530167M511.61626 831.996291c-247.161193 0-447.524546-200.363354-447.524546-447.524546s200.363354-447.524546 447.524546-447.524546 447.524546 200.363354 447.524546 447.524546S758.777453 831.996291 511.61626 831.996291L511.61626 831.996291z"  horiz-adv-x="1024" />

    
    <glyph glyph-name="wx" unicode="&#58884;" d="M648.053483 494.973321c3.5189 0 7.037801 0 10.556701-0.25592-18.490222 100.96045-122.777632 178.184317-248.562324 178.184317-138.900594 0-251.505405-94.178569-251.505405-210.36626 0-68.074727 38.643924-128.663793 98.72115-167.051797a62.380506 62.380506 0 0 1 2.30328-1.40756l-24.312402-76.136207 90.915589 46.321524a294.563949 294.563949 0 0 1 83.813808-11.964261c5.694221 0 11.324461 0.25592 16.890722 0.57582a165.196376 165.196376 0 0 0-7.933521 50.096345c0 106.07885 102.55995 192.003999 229.112402 192.003999z m-150.544954 74.216807c19.577882 0 35.380943-15.291221 35.380943-34.165323a34.805123 34.805123 0 0 0-35.380943-34.229304 34.741143 34.741143 0 0 0-35.316964 34.229304 34.805123 34.805123 0 0 0 35.316964 34.165323zM322.523211 500.859481a34.741143 34.741143 0 0 0-35.316963 34.229304c0 18.874102 15.803062 34.165323 35.316963 34.165323s35.380943-15.291221 35.380944-34.165323a34.805123 34.805123 0 0 0-35.380944-34.229304zM649.972883 479.362199c-117.403311 0-212.477601-79.527148-212.4776-177.608497 0-98.14533 95.074289-177.736457 212.4776-177.736457a252.593065 252.593065 0 0 1 70.761887 10.236801l76.776008-39.091784-20.537582 64.235926 1.98338 1.34358c50.736145 32.501843 83.429928 83.621868 83.429928 141.139894 0 97.95339-95.202249 177.480537-212.413621 177.480537zM576.011996 333.999625c-16.506842 0-29.878663 12.923961-29.878663 28.918963s13.371821 28.854983 29.878663 28.854983 29.814683-12.923961 29.814683-28.854983-13.307841-28.918963-29.814683-28.918963z m147.793815 0c-16.442862 0-29.814683 12.923961-29.814683 28.918963s13.371821 28.854983 29.814683 28.854983c16.634802 0 29.878663-12.923961 29.878663-28.854983s-13.307841-28.918963-29.878663-28.918963zM511.84005 896C229.624242 896 0 666.247798 0 384.03199c0-282.343768 229.624242-512.03199 511.84005-512.03199s511.84005 229.752202 511.84005 512.03199C1023.6801 666.247798 794.055858 896 511.84005 896z m0-974.479475c-255.024305 0-462.383505 207.42318-462.383505 462.511465C49.456545 638.992315 256.815745 846.479475 511.84005 846.479475c254.960325 0 462.255545-207.48716 462.255545-462.447485 0.06398-255.088285-207.29522-462.511465-462.255545-462.511465z"  horiz-adv-x="1024" />

    
    <glyph glyph-name="xiaoxi" unicode="&#59012;" d="M408.71-23c-1.955 0-3.856 0.395-5.648 1.176-4.944 2.15-8.283 7.02-8.507 12.407l-6.208 148.968H208.913c-78.771 0-142.858 64.085-142.858 142.855l0.005 366.18C66.302 727.113 130.387 791 208.915 791h606.174c78.771 0 142.856-64.086 142.856-142.857v-365.737c0-78.771-64.085-142.855-142.856-142.855H603.596L417.937-19.588A14.188 14.188 0 0 0 408.71-23zM208.915 762.653c-63.141 0-114.51-51.369-114.51-114.51L94.4 282.406c0-63.141 51.369-114.51 114.512-114.51h193.029a14.137 14.137 0 0 0 14.159-13.581l5.555-133.38 167.475 143.55a14.18 14.18 0 0 0 9.224 3.411h216.733c63.141 0 114.51 51.369 114.51 114.51V648.143c0 63.141-51.369 114.51-114.51 114.51H208.915zM512.001 374.896c-41.277 0-74.856 33.58-74.856 74.855 0 41.275 33.58 74.854 74.856 74.854 41.273 0 74.853-33.579 74.853-74.854s-33.58-74.855-74.853-74.855z m0 121.366c-25.646 0-46.51-20.864-46.51-46.509s20.864-46.51 46.51-46.51c25.645 0 46.509 20.865 46.509 46.51s-20.864 46.509-46.509 46.509zM285.703 374.896c-41.275 0-74.854 33.58-74.854 74.855 0 41.275 33.58 74.854 74.854 74.854 41.273 0 74.853-33.579 74.853-74.854s-33.58-74.855-74.853-74.855z m0 121.366c-25.646 0-46.51-20.864-46.51-46.509s20.864-46.51 46.51-46.51c25.645 0 46.509 20.865 46.509 46.51s-20.865 46.509-46.509 46.509zM738.295 374.896c-41.275 0-74.854 33.58-74.854 74.855 0 41.275 33.58 74.854 74.854 74.854 41.277 0 74.856-33.579 74.856-74.854 0.001-41.275-33.579-74.855-74.856-74.855z m0 121.366c-25.645 0-46.509-20.864-46.509-46.509s20.864-46.51 46.509-46.51c25.646 0 46.51 20.865 46.51 46.51s-20.863 46.509-46.51 46.509z"  horiz-adv-x="1024" />

    
    <glyph glyph-name="sheying" unicode="&#58907;" d="M512.1 831.4C265 831.4 64.6 631.1 64.6 383.9S265-63.6 512.1-63.6s447.5 200.4 447.5 447.5S759.2 831.4 512.1 831.4z m0-880C273.2-48.6 79.6 145 79.6 383.9S273.2 816.4 512.1 816.4s432.5-193.6 432.5-432.5S751-48.6 512.1-48.6zM676.1 564.4h-48.6c-2.2 0-4 1.8-4 4 0 39-28.7 70.8-63.9 70.8h-93.5c-35.3 0-63.9-31.8-63.9-70.8 0-2.2-1.8-4-4-4h-48.6c-35.3 0-63.9-31.8-63.9-70.8v-238.1c0-39 28.7-70.8 63.9-70.8h326.5c35.3 0 63.9 31.8 63.9 70.8V493.6c0.1 39-28.6 70.8-63.9 70.8z m47.7-308.9c0-30.1-21.4-54.6-47.7-54.6H349.6c-26.3 0-47.7 24.5-47.7 54.6V493.6c0 30.1 21.4 54.6 47.7 54.6h48.6c11.1 0 20.2 9.1 20.2 20.2 0 30.1 21.4 54.6 47.7 54.6h93.5c26.3 0 47.7-24.5 47.7-54.6 0-11.1 9.1-20.2 20.2-20.2h48.6c26.3 0 47.7-24.5 47.7-54.6v-238.1zM512.1 453.2c-40.3 0-73-32.8-73-73 0-40.3 32.8-73 73-73s73 32.8 73 73-32.7 73-73 73z m0-129.8c-31.3 0-56.8 25.5-56.8 56.8 0 31.3 25.5 56.8 56.8 56.8s56.8-25.5 56.8-56.8c0-31.3-25.5-56.8-56.8-56.8zM661.4 516.9c-13.4 0-24.3-10.9-24.3-24.3s10.9-24.3 24.3-24.3 24.3 10.9 24.3 24.3-10.8 24.3-24.3 24.3z m0-32.5c-4.5 0-8.1 3.6-8.1 8.1s3.6 8.1 8.1 8.1 8.1-3.6 8.1-8.1-3.6-8.1-8.1-8.1z"  horiz-adv-x="1024" />

    
    <glyph glyph-name="shouji" unicode="&#58897;" d="M678.657 839.028h-333.681c-41.757 0-75.917-34.164-75.917-75.796v-758.704c0-41.757 34.044-75.917 75.917-75.917h333.681c41.757 0 75.917 34.164 75.917 75.917v758.704c0 41.633-34.164 75.796-75.917 75.796zM466.205 778.414h91.103c8.326 0 15.184-6.859 15.184-15.184 0-8.447-6.859-15.184-15.184-15.184h-91.103c-8.326 0-15.062 6.735-15.062 15.184 0 8.326 6.735 15.184 15.062 15.184zM511.756-41.026c-25.103 0-45.552 20.327-45.552 45.427s20.45 45.552 45.552 45.552c25.227 0 45.552-20.45 45.552-45.552s-20.327-45.427-45.552-45.427zM724.208 80.32h-424.783v606.991h424.783v-606.991zM565.266 415.716c29.511 16.777 49.226 47.51 49.226 82.775 0 53.023-44.94 96.124-100.288 96.124-55.471 0-100.288-42.98-100.288-96.124 0-34.899 19.471-65.513 48.49-82.409-69.922-20.202-120.612-81.187-120.612-153.187v-4.899c0-6.003 5.145-10.894 11.508-10.894s11.508 4.899 11.508 10.894c0 1.591-0.123 3.184-0.123 4.899 0 76.777 66.489 138.86 148.533 138.86s148.533-62.207 148.533-138.86c0-1.591 0-3.308-0.123-4.899 0-6.003 5.145-10.894 11.386-10.894s11.386 4.899 11.386 10.894c0 1.591 0.123 3.308 0.123 4.899 0.123 71.635-50.083 132.25-119.267 152.818zM436.325 498.493c0 41.267 34.899 74.695 77.881 74.695s77.881-33.431 77.881-74.695-34.899-74.695-77.881-74.695-77.881 33.431-77.881 74.695z"  horiz-adv-x="1024" />

    
    <glyph glyph-name="shoujimo" unicode="&#58893;" d="M837.579487-22.974359a105.025641 105.025641 0 0 0-105.025641-105.025641H291.446154a105.025641 105.025641 0 0 0-105.025641 105.025641V790.974359A105.025641 105.025641 0 0 0 291.446154 896h279.893333l1.785436-2.100513 1.092267 1.076513 125.033025-150.039631L837.579487 581.584738V-22.974359zM527.160451 853.989744H307.2A78.769231 78.769231 0 0 1 228.430769 775.220513v-782.441026a78.769231 78.769231 0 0 1 78.769231-78.769231h409.6a78.769231 78.769231 0 0 1 78.769231 78.769231V563.97719l-5.335303 6.401313-1.675159-5.566359c-94.990441 29.107856-148.858092 27.154379-241.70601-4.825929-0.771938 2.2528-1.575385 4.500349-2.326318 6.753149l-4.783918-1.643651A508.009026 508.009026 0 0 0 527.160451 853.989744z m40.125046-16.074175a465.846482 465.846482 0 0 1 2.888206-225.805128c64.543508 18.405744 115.591221 20.858092 179.389046 7.08398zM465.326605 1.774933A491.210174 491.210174 0 0 0 299.323077 172.751426a21.530256 21.530256 0 0 0 8.323282 28.078605c9.756882 6.238523 21.393723 4.201026 26.345682-4.311303a461.955282 461.955282 0 0 1 156.104862-160.794256c8.35479-5.204021 10.056205-16.893374 3.528861-26.46121a21.561764 21.561764 0 0 0-28.299159-7.488329zM313.396513 121.635446a337.589169 337.589169 0 0 1 101.249969-104.290461 18.521272 18.521272 0 0 0 4.006728-26.072616 20.380226 20.380226 0 0 0-27.789784-6.243774 368.298667 368.298667 0 0 0-110.444964 113.795282 20.380226 20.380226 0 0 0 7.057723 27.590236 18.521272 18.521272 0 0 0 25.920328-4.778667z"  horiz-adv-x="1024" />

    
    <glyph glyph-name="shoujike" unicode="&#58917;" d="M297.736175 23.93754c-16.698947 8.349473-33.9469 19.443979-39.517028 37.847133A50.325593 50.325593 0 0 0 256.000246 77.374169V840.344469A55.815657 55.815657 0 0 0 311.655777 896h400.694657a55.815657 55.815657 0 0 0 55.655531-55.655531v-762.432731a55.815657 55.815657 0 0 0-55.655531-55.655531h-61.225659v-94.600676a55.815657 55.815657 0 0 0-55.65553-55.655531m-294.953725 951.61121v-729.000525c0-15.578059 10.019368-28.388209 27.827766-33.386456l261.567268-127.964257c10.568374-5.009684 16.698947-4.44924 16.698947 11.128818V673.389315c-6.679579 15.029052-10.019368 16.698947-27.827765 27.827765L322.784595 845.914598c-15.623809 0-22.257637-6.679579-22.257637-22.257638z m422.952295 0a27.553262 27.553262 0 0 1-27.827765 27.827765H395.688079l178.644417-94.612114h149.158194z m0-83.494734H605.50005c24.487976-13.359157 41.175485-23.927532 45.636163-50.085402v-511.948531h72.354477z m0-578.744317h-72.34304v-94.612115h44.526712a27.553262 27.553262 0 0 1 27.839203 27.850641z m-233.739503 662.239051a11.163131 11.163131 0 0 0 11.128818 11.128818h77.913168a11.128819 11.128819 0 1 0 0-22.257637h-77.90173a11.163131 11.163131 0 0 0-11.128819 11.174569z m-42.84538-755.158396l-2.230339 33.386456a135.501659 135.501659 0 0 1 108.520279 64.050754l28.388209-18.368841a169.276994 169.276994 0 0 0-134.678149-79.068369z m138.017938 18.368842c-18.917848-29.49766-51.194853-48.415508-86.262641-51.194854l-1.612706 32.265568a77.455662 77.455662 0 0 1 60.619464 36.177239z"  horiz-adv-x="1024" />

    
    <glyph glyph-name="dingwei" unicode="&#58954;" d="M512.49 836.251c-247.98 0-449.008-201.028-449.008-449.008 0-247.982 201.027-449.01 449.008-449.01 247.982 0 449.01 201.028 449.01 449.01 0 247.98-201.028 449.008-449.01 449.008z m0-858.973c-226.418 0-409.965 183.545-409.965 409.965 0 226.418 183.547 409.965 409.965 409.965s409.967-183.547 409.967-409.965c0-226.42-183.549-409.965-409.967-409.965z m-19.819 390.659v-278.095L710.638 595.57 199.555 367.937h293.116z m39.044-88.857V406.981h-148.53l252.043 112.252L531.715 279.08z"  horiz-adv-x="1024" />

    
    <glyph glyph-name="circle-shield" unicode="&#58899;" d="M757.056 637.696l-4.544-0.128c-1.728-0.064-7.552-0.32-16.192-0.32-16.448 0-48.512 1.024-78.336 7.552-26.368 5.824-59.264 30.272-78.848 44.928a231.424 231.424 0 0 1-17.216 12.16 75.968 75.968 0 0 1-74.112 0.256c-0.768-0.448-2.368-1.344-6.464-4.992-41.472-36.48-70.528-48.64-87.552-52.352a388.352 388.352 0 0 0-78.912-7.552c-8.64 0-14.528 0.256-16.32 0.32a71.936 71.936 0 0 1-50.496-16.256 62.016 62.016 0 0 1-22.784-47.616v-94.144c0-370.176 275.968-418.688 287.68-420.672a66.496 66.496 0 0 1 23.424 0.064c11.84 1.856 289.536 49.728 289.536 420.608V573.696a62.208 62.208 0 0 1-22.784 47.616 72.768 72.768 0 0 1-46.08 16.384z m33.664-158.08c0-341.568-249.344-384.704-260.16-386.432a34.176 34.176 0 0 0-11.968 0c-10.496 1.664-258.112 45.44-258.112 386.432v94.08c0 7.936 3.776 15.616 10.368 21.12a35.84 35.84 0 0 0 26.24 8.064c1.92-0.064 8.384-0.384 17.856-0.384a426.88 426.88 0 0 1 86.592 8.384c21.12 4.672 56.192 18.88 103.296 60.416 0.768 0.704 1.664 1.408 0.896 0.96a39.488 39.488 0 0 0 37.824 0c3.008-1.792 8.448-5.888 14.336-10.176 21.888-16.32 58.624-43.712 92.48-51.136a421.76 421.76 0 0 1 104.448-8l2.24 0.064c8.64 0 17.088-2.944 23.296-8.128a27.584 27.584 0 0 0 10.368-21.12v-94.144zM606.976 487.872c6.72 6.656 6.72 17.408 0 24.064s-17.664 6.656-24.448 0l-56.832-56L468.8 512c-6.72 6.592-17.664 6.592-24.448 0s-6.72-17.408 0-24.064l64-63.04v-10.112h-51.904c-9.536 0-17.28-7.616-17.28-17.024s7.744-17.024 17.28-17.024h51.904v-34.112h-51.904c-9.536 0-17.28-7.616-17.28-17.024s7.744-17.024 17.28-17.024h51.904v-51.072c0-9.408 7.744-17.088 17.28-17.088 9.536 0 17.28 7.616 17.28 17.088v51.136h51.84c9.536 0 17.344 7.616 17.344 17.024s-7.808 16.96-17.344 16.96h-51.84v34.112h51.84c9.536 0 17.344 7.616 17.344 17.024s-7.808 17.024-17.344 17.024h-51.84v9.984l64.064 63.104zM524.8 896a512 512 0 1 1 0-1024 512 512 0 0 1 0 1024z m0-985.6A473.6 473.6 0 1 0 524.8 857.6a473.6 473.6 0 0 0 0-947.2z"  horiz-adv-x="1088" />

    
    <glyph glyph-name="arrow-circle-o-down" unicode="&#58880;" d="M512 768c212 0 384-172 384-384s-172-384-384-384-384 172-384 384 172 384 384 384M512 832c-247.2 0-448-200.8-448-448s200.8-448 448-448 448 200.8 448 448-200.8 448-448 448zM738.4 509.6l-226.4-227.201-226.4 227.201-45.6-45.6 272.001-272.001 272.001 272.001-45.6 45.6z"  horiz-adv-x="1024" />

    
    <glyph glyph-name="add" unicode="&#58881;" d="M529.084484 401.835604V593.87874H494.164396V401.835604H302.12126v-34.91915H494.164396V174.867692h34.920088V366.915516H721.132308V401.835604H529.084484z m-17.4577-401.553348C299.494681 0.282256 127.531136 172.245802 127.531136 384.372278 127.531136 596.505319 299.494681 768.468864 511.626784 768.468864 723.755136 768.468864 895.718681 596.505319 895.718681 384.372278c-0.000938-212.126476-171.964484-384.090022-384.091897-384.090022z m0 34.9154c192.842081 0 349.17556 156.33348 349.17556 349.174622 0 192.846769-156.33348 349.176498-349.17556 349.176499-192.845832 0-349.176498-156.329729-349.176498-349.176499 0-192.841143 156.329729-349.174623 349.176498-349.174622z m0 0"  horiz-adv-x="1024" />

    
    <glyph glyph-name="yun" unicode="&#58932;" d="M949.24864 476.970667a253.610667 253.610667 0 0 1-162.688 73.898666A342.549333 342.549333 0 0 1 487.765973 725.333333a342.890667 342.890667 0 0 1-225.088-84.096 341.162667 341.162667 0 0 1-110.528-189.354666A208.533333 208.533333 0 0 1 0.00064 251.2a206.890667 206.890667 0 0 1 60.373333-146.538667 208.085333 208.085333 0 0 1 118.869334-59.882666V42.666667h589.504c68.16 0 132.288 26.453333 180.501333 74.517333A252.266667 252.266667 0 0 1 1024.00064 297.066667c0 67.968-26.538667 131.861333-74.752 179.904z m-180.501333-379.392H209.34464l-2.197333 0.042666a153.344 153.344 0 0 0-107.584 45.653334 152.384 152.384 0 0 0-44.458667 107.946666 153.6 153.6 0 0 0 126.037333 151.061334l19.456 3.562666 2.816 19.52a285.973333 285.973333 0 0 0 95.488 174.485334 287.530667 287.530667 0 0 0 188.842667 70.570666 287.274667 287.274667 0 0 0 235.968-122.901333 254.570667 254.570667 0 0 1-159.978667-98.837333 27.413333 27.413333 0 0 1 6.229334-38.357334 27.626667 27.626667 0 0 1 37.994666 5.589334 201.642667 201.642667 0 0 0 69.376 58.709333 198.229333 198.229333 0 0 0 91.392 21.952c110.336 0 200.128-89.472 200.128-199.488s-89.749333-199.509333-200.106666-199.509333z"  horiz-adv-x="1024" />

    
    <glyph glyph-name="circle-list" unicode="&#59095;" d="M512.50176-31.39584A414.464 414.464 0 0 0 351.232 764.75392a414.464 414.464 0 0 0 322.56-763.58656 411.79136 411.79136 0 0 0-161.29024-32.5632z m0 787.7632c-205.89568 0-373.4016-167.50592-373.4016-373.4016s167.50592-373.4016 373.4016-373.4016S885.90336 177.07008 885.90336 382.976 718.3872 756.36736 512.50176 756.36736zM723.36384 512.8704H381.10208a20.48 20.48 0 1 0 0 40.96h342.26176a20.48 20.48 0 1 0 0-40.96zM723.36384 362.496H381.10208a20.48 20.48 0 1 0 0 40.96h342.26176a20.48 20.48 0 1 0 0-40.96zM723.36384 212.14208H381.10208a20.48 20.48 0 1 0 0 40.96h342.26176a20.48 20.48 0 1 0 0-40.96zM281.18016 533.32992a20.48 20.48 0 1 1 20.48 20.48 20.48 20.48 0 0 1-20.48-20.48zM281.18016 382.976a20.48 20.48 0 1 1 20.48 20.48 20.48 20.48 0 0 1-20.48-20.48zM281.18016 232.59136a20.48 20.48 0 1 1 20.48 20.48 20.48 20.48 0 0 1-20.48-20.48z"  horiz-adv-x="1024" />

    
    <glyph glyph-name="jiahao" unicode="&#58886;" d="M512-128C229.23-128 0 101.23 0 384S229.23 896 512 896s512-229.23 512-512-229.23-512-512-512z m0 969.143C259.53 841.143 54.857 636.47 54.857 384S259.53-73.143 512-73.143 969.143 131.53 969.143 384 764.47 841.143 512 841.143zM256 420.571h512a36.571 36.571 0 1 0 0-73.142H256a36.571 36.571 0 1 0 0 73.142zM512 676.571A36.571 36.571 0 0 0 548.571 640v-512a36.571 36.571 0 0 0-73.142 0V640A36.571 36.571 0 0 0 512 676.571z"  horiz-adv-x="1024" />

    
    <glyph glyph-name="icon-test" unicode="&#58991;" d="M519.97696 410.671104c-69.638144-7.200768-107.999232-50.399232-115.2-129.599488 0-100.800512 38.361088-152.438784 115.2-154.800128 71.999488 0 109.182976 45.561856 111.599616 136.800256-4.839424 91.181056-42.018816 140.40064-111.599616 147.59936zM510.976 896C228.77184 896 0 667.22816 0 385.024 0 102.81984 228.77184-125.952 510.976-125.952 793.18016-125.952 1021.952 102.81984 1021.952 385.024 1021.952 667.22816 793.18016 896 510.976 896z m-1.800192-845.328384c-141.637632 2.420736-212.400128 109.180928-212.400128 320.39936 0 237.600768 76.781568 357.5808 230.4 359.999488 112.781312-4.837376 173.981696-67.219456 183.599104-187.199488h-82.80064c-12.038144 71.999488-45.617152 109.180928-100.800512 111.599616-86.401024-2.418688-132.018176-84.037632-136.800256-244.799488 23.9616 50.399232 71.999488 77.961216 144.001024 82.80064 115.2-12.038144 178.761728-84.037632 190.799872-216.000512-7.19872-148.836352-79.198208-224.37888-215.998464-226.799616z"  horiz-adv-x="1024" />

    
    <glyph glyph-name="kefu" unicode="&#58951;" d="M502.198935 895.411832c-266.20471 0-482.062263-215.857553-482.062263-482.062263S235.994225-68.24216 502.198935-68.24216 984.261198 147.144859 984.261198 413.349569c0 266.20471-215.857553 482.062263-482.062263 482.062263z m0-944.714991c-255.735325 0-462.535095 207.270304-462.535095 462.535095S246.934145 875.76703 502.198935 875.76703c255.735325 0 462.535095-207.270304 462.535095-462.535094S757.934259-49.303159 502.198935-49.303159z m0 0M658.181014 481.812292c-23.409075 63.522114-84.578518 108.928662-156.099713 108.928661-74.226766 0-137.160712-48.817921-158.452383-116.104307-40.701206-2.352671-73.285698-39.760138-73.638599-85.519587-0.352901-43.524411 28.349684-79.637909 65.874785-85.99012v-0.588168h4.587708c2.117404-0.235267 4.234808-0.352901 6.469845-0.352901v0.352901h11.175187l0.117633 121.868351c0 79.402642 64.580816 143.983458 143.983458 143.983458s143.983458-64.580816 143.983458-143.983458-20.23297-143.983458-99.635612-143.983457l-23.761976 10.234118c-11.410454 13.410224-30.819989 14.586559-43.524411 2.470304s-13.763125-32.819759-2.352671-46.229982c11.410454-13.410224 30.819989-14.586559 43.524411-2.470305 5.764044 5.528777 26.114647 13.763125 26.114647 13.763125 45.524182 0 75.873636 18.350833 94.93027 48.112119l-0.117634-1.058702c48.347387-2.940839 90.107295 34.466628 92.9305 83.284549 2.823205 46.700517-30.819989 87.28409-76.108903 93.283401zM292.105425 388.999426c0.235267 29.996554 19.880069 55.052499 45.641815 60.228374-1.176335-8.234348-1.882137-16.468696-1.882136-24.703044v-96.341873c-25.173578 5.999311-43.994945 31.055256-43.759679 60.816543z m417.246181 1.058702c-1.882137-31.172889-25.87938-55.7583-55.640666-59.169673 10.351752 26.702814 14.704193 58.934406 14.704193 93.636301 0 10.234118-0.941068 20.115336-2.705572 29.761287 26.702814-8.587249 45.288914-34.701895 43.642045-64.227915z m0 0"  horiz-adv-x="1024" />

    
    <glyph glyph-name="circle-cloud" unicode="&#58903;" d="M512 820.90666667C210.53986133 820.90666667 75.09333333 685.46013867 75.09333333 384c0-301.48307627 135.446528-436.90666667 436.90666667-436.90666667 301.48307627 0 436.90666667 135.4235904 436.90666667 436.90666667 0 301.46013867-135.4235904 436.90666667-436.90666667 436.90666667z m183.468032-602.96615254H366.7197952C302.29353813 217.94051413 249.856 270.33545387000004 249.856 334.84799999999996c0 56.74653013 40.40512853 104.81063253 95.01846187 114.688 26.21986133 54.61333333 81.92 92.84266667 146.36919466 92.84266667 72.12782933 0 133.22704213-46.9762048 155.07237547-112.5122048-5.46133333-2.1757952-11.9472128-5.46133333-17.40854613-8.72393387-31.74454613-18.5827328-52.4812288-46.97838933-62.29415254-83.00898987-2.21948587-9.85552213 3.244032-19.628032 13.14215254-22.95507626 1.02454613 0 3.244032-1.06714453 4.35268266-1.06714454 8.7064576 0 15.3157632 5.46133333 17.49265067 14.2508032C615.76533333 382.95470079999996 663.8075904 402.60130133 697.68533333 403.71213653c49.152-2.19764053 89.6008192-42.58092373 89.6008192-92.84266666 1.02454613-51.45668267-40.4488192-92.92895573-91.81812053-92.92895574z"  horiz-adv-x="1024" />

    
    <glyph glyph-name="shangchuan" unicode="&#58882;" d="M512 778.08581265c-248.312412 0-449.610044-200.316282-449.610044-447.418123s201.297632-447.419146 449.610044-447.419146 449.610044 200.316282 449.610044 447.418123S760.313435 778.08581265 512 778.08581265zM512-60.92907935000005c-216.272695 0-391.595746 175.323051-391.595746 391.595746s175.323051 391.595746 391.595746 391.595746 391.595746-175.323051 391.595746-391.595746S728.272695-60.92907935000005 512-60.92907935000005zM676.05338 389.19568765l-142.382824 142.382824c-0.36225 0.406253-0.735757 0.805342-1.124614 1.195222-5.64558 5.64558-13.088086 8.464789-20.529569 8.460696-0.00614 0-0.011256 0-0.017396 0l0 0c-0.00614 0-0.011256 0-0.017396 0-7.441483 0.005117-14.883989-2.815115-20.529569-8.460696l0 0c-0.38988-0.38988-0.762363-0.788969-1.124614-1.195222l-142.382824-142.382824c-11.280928-11.280928-11.280928-29.741371 0-41.022299l0 0c11.280928-11.280928 29.741371-11.280928 41.022299 0l94.024443 94.024443 0-336.070128c0-15.954367 13.053294-29.006637 29.006637-29.006637l0 0c15.954367 0 29.006637 13.053294 29.006637 29.006637L541.004591 442.19783265l94.024443-94.024443c11.280928-11.280928 29.741371-11.280928 41.022299 0l0 0C687.334307 359.45431665 687.334307 377.91476064999995 676.05338 389.19568765z"  horiz-adv-x="1024" />

    
    <glyph glyph-name="icon-test1" unicode="&#58916;" d="M637.669 679.857H386.342c-39.458 0-71.56-32.095-71.56-71.546V159.69c0-39.451 32.102-71.548 71.56-71.548h251.327c39.452 0 71.549 32.097 71.549 71.548V608.312c0 39.45-32.097 71.545-71.549 71.545z m-251.327-30h251.327c22.91 0 41.549-18.637 41.549-41.546v-17.282H344.782v17.282c0 22.909 18.644 41.546 41.56 41.546z m292.876-78.615v-340.385H344.782V571.242h334.436z m-41.549-453.099H386.342c-22.916 0-41.56 18.639-41.56 41.548v51.384h334.436v-51.384c0-22.91-18.639-41.548-41.549-41.548zM483.73 607.991h56.549c4.699 0 8.476 3.809 8.476 8.489a8.468 8.468 0 0 1-8.476 8.475H483.73c-4.688 0-8.485-3.801-8.485-8.475 0-4.68 3.798-8.489 8.485-8.489zM511.995 194.927c-17.167 0-31.101-13.923-31.101-31.112 0-17.179 13.934-31.102 31.101-31.102 17.178 0 31.112 13.923 31.112 31.102-0.001 17.189-13.934 31.112-31.112 31.112zM512.013 802.826C280.69 802.826 93.182 615.305 93.182 384c0-231.307 187.508-418.826 418.831-418.826 231.315 0 418.806 187.52 418.806 418.826-0.001 231.305-187.491 418.826-418.806 418.826z m-0.001-819.795c-221.459 0-400.973 179.524-400.973 400.969 0 221.442 179.514 400.969 400.973 400.969 221.453 0 400.949-179.526 400.949-400.969 0-221.444-179.496-400.969-400.949-400.969z"  horiz-adv-x="1024" />

    
    <glyph glyph-name="QQ" unicode="&#58898;" d="M512 896C228.864 896 0 667.136 0 384s228.864-512 512-512 512 228.864 512 512S795.136 896 512 896m210.432-641.536c-7.68-9.216-27.136 2.048-41.984 32.768-3.584-13.824-12.8-36.352-34.304-64 35.328-8.192 44.544-43.008 33.28-61.44-8.192-12.8-27.136-24.064-59.392-24.064-58.88 0-83.968 15.872-95.744 27.136-2.048 2.56-5.632 3.584-10.24 3.584-4.608 0-7.68-1.024-10.24-3.584-11.264-11.264-37.376-27.136-95.744-27.136-32.768 0-52.224 11.264-59.392 24.064-12.288 18.432-2.048 53.248 33.28 61.44-20.48 28.16-29.696 50.176-34.304 64-13.824-30.72-34.304-43.008-41.984-32.768-5.632 8.192-8.192 26.112-7.68 38.4 3.584 46.592 34.304 85.504 53.248 105.984-2.56 5.632-8.192 39.936 14.848 63.488v2.048c0 92.16 65.024 158.208 147.968 158.208 81.92 0 147.968-66.048 147.968-158.208v-2.048c23.04-23.04 17.92-57.856 14.848-63.488 17.92-20.48 49.152-59.392 53.248-105.984 0.512-12.288-1.024-29.696-7.68-38.4"  horiz-adv-x="1024" />

    
    <glyph glyph-name="kefu1" unicode="&#58957;" d="M881.344 186.368a87.424 87.424 0 0 0-87.296 87.296V447.488c0 48.128 39.168 87.296 87.296 87.296A142.72 142.72 0 0 0 1024 392.192v-63.168c0-78.656-64-142.656-142.656-142.656z m0 284.416a23.36 23.36 0 0 1-23.296-23.296v-173.824c0-12.864 10.432-23.296 23.296-23.296A78.72 78.72 0 0 1 960 329.024v63.168a78.72 78.72 0 0 1-78.656 78.592zM142.656 186.368C64 186.368 0 250.368 0 329.024v63.168c0 78.656 64 142.656 142.656 142.656 48.128 0 87.296-39.168 87.296-87.296v-173.824c0-48.192-39.168-87.36-87.296-87.36z m0 284.416A78.72 78.72 0 0 1 64 392.192v-63.168a78.72 78.72 0 0 1 78.656-78.656 23.296 23.296 0 0 1 23.296 23.296V447.488a23.36 23.36 0 0 1-23.296 23.296zM197.952 423.424a32 32 0 0 0-32 32v33.6c0 182.08 144 330.24 320.96 330.24h44.032a327.488 327.488 0 0 0 327.104-327.168v-33.6a32 32 0 0 0-64 0v33.6a263.488 263.488 0 0 1-263.104 263.168h-44.096c-141.696 0-256.96-119.424-256.96-266.24v-33.6a31.872 31.872 0 0 0-31.936-32z m404.992-426.688h-10.816a32 32 0 0 0 0 64h10.816c105.344 0 191.104 106.624 191.104 237.696v22.08a32 32 0 0 0 64 0v-22.08c0-166.4-114.432-301.696-255.104-301.696zM546.944 28.736a48 48 0 1 1 96 0 48 48 0 1 1-96 0z"  horiz-adv-x="1024" />

    
    <glyph glyph-name="erji" unicode="&#58939;" d="M163.7-26.6c-18 0-41.4 3.1-69.4 9.3-31.7 7-55.7 26.8-71.5 59C7.7 72.7 0 116 0 170.4c0 79.3 23.9 130.8 71.1 153.2l0.8 0.4v0.9c0.5 63.8 11.2 123.8 32.1 178.2 21.3 55.7 53.6 107.2 96.2 153.1 42.5 45.9 90.3 80.8 142.2 103.8 51.8 23 108.9 34.6 169.7 34.6 60.8 0 117.9-11.7 169.7-34.6 51.8-23 99.6-57.9 142.2-103.7 42.6-45.8 74.9-97.3 96.2-153 20.7-54.2 31.5-113.8 32-177.4v-0.7l0.6-0.4c47.4-35.5 71.4-90.7 71.4-164 0-50.5-7.7-90.9-22.9-120.1-15.7-30.2-39.7-49.3-71.3-56.7-28.8-6.8-52.7-10.2-71.1-10.2-21.1 0-36.1 4.7-44.7 13.9-15 16.1-22.6 36.9-22.6 61.6V243.1c0 24.9 7.6 45.6 22.6 61.6 15 16.2 34.4 24.4 57.6 24.4h27.6v1.5c-2.2 110.9-40.3 207.1-113.5 285.8-75.4 81.2-167.5 122.3-273.9 122.3-106.6 0-198.8-41.1-274-122.2-73.1-78.9-111.3-175.1-113.5-285.8v-1.5h27.6c23.2 0 42.6-8.2 57.7-24.5 15-16 22.7-36.7 22.7-61.6v-193.9c0-24.8-7.6-45.5-22.6-61.6-8.8-9.5-23.9-14.2-46.2-14.2z m677.2 253.3c0-0.8 0-83.2 0.5-120.8v-0.5c-3.9-69.7 9.7-71.9 16.2-73 1-0.2 2-0.3 3-0.6h0.2c0.1 0 0.5-0.1 1.2-0.1 10.9 0 41.5 7.6 53 10.5l2.3 0.6h0.3c23.1 2.9 39.5 21.5 49 55.4 7.4 26.5 7.7 53.6 7.5 57.8v0.8c2.7 50.3-9.6 79.8-20.4 95.7-8.6 12.6-17.6 18.8-21 20.8l-0.4 0.2h-0.4c-4.6-0.1-13.9-0.3-25.1-0.3-14.5 0-27.4 0.3-38.1 0.8h-0.4c-32.3-7.5-27.6-44.7-27.4-46.2l0.1-0.6v-0.5zM91.2 273.4c-3.5-2-12.4-8.2-21-20.8-10.8-15.9-23.1-45.4-20.4-95.5v-0.9c-0.2-4.3 0.1-31.5 7.5-57.9 9.4-33.8 25.9-52.5 48.8-55.4l0.7-0.1 2.1-0.5c11.5-2.9 42.1-10.5 53-10.5 0.7 0 1.1 0 1.2 0.1h0.2c1 0.3 2.1 0.4 2.9 0.6 6.6 1.1 20.1 3.3 16.3 72.8v0.6c0.5 37.5 0.5 120 0.5 120.8v0.6l0.1 0.6c0.2 1.6 5 38.7-27.4 46.2h-0.4c-10.8-0.6-23.6-0.8-38.1-0.8-11.2 0-20.6 0.2-25.1 0.3h-0.4l-0.5-0.2z"  horiz-adv-x="1024" />

    
    <glyph glyph-name="wb1" unicode="&#58892;" d="M412.16 291.84c-17.92 7.68-39.68 0-51.2-16.64-11.52-16.64-6.4-37.12 11.52-44.8 17.92-7.68 40.96 0 52.48 16.64 11.52 17.92 5.12 37.12-12.8 44.8z m43.52 17.92c-6.4 2.56-15.36 0-19.2-7.68-3.84-6.4-1.28-14.08 5.12-16.64 6.4-2.56 15.36 0 19.2 7.68 3.84 6.4 1.28 14.08-5.12 16.64z m0 0M428.8 426.24c-112.64-11.52-198.4-79.36-190.72-153.6 7.68-74.24 104.96-124.16 217.6-113.92 112.64 11.52 198.4 79.36 190.72 153.6-7.68 74.24-104.96 125.44-217.6 113.92z m98.56-174.08c-23.04-52.48-89.6-79.36-145.92-61.44-53.76 17.92-76.8 70.4-53.76 119.04 23.04 47.36 84.48 74.24 138.24 60.16 56.32-14.08 84.48-66.56 61.44-117.76z m0 0M510.72 883.2C235.52 883.2 12.8 660.48 12.8 385.28s222.72-497.92 497.92-497.92 497.92 222.72 497.92 497.92S785.92 883.2 510.72 883.2z m-55.04-773.12c-140.8 0-286.72 67.84-286.72 180.48 0 58.88 37.12 126.72 101.12 190.72 85.76 85.76 185.6 124.16 224 87.04 16.64-16.64 17.92-44.8 7.68-79.36-5.12-16.64 16.64-7.68 16.64-7.68 69.12 29.44 130.56 30.72 152.32-1.28 11.52-16.64 10.24-40.96 0-67.84-5.12-12.8 1.28-14.08 11.52-17.92 39.68-11.52 83.2-40.96 83.2-92.16-1.28-84.48-124.16-192-309.76-192z m256 357.12c5.12 14.08 1.28 30.72-8.96 42.24-10.24 11.52-26.88 16.64-40.96 12.8-11.52-2.56-24.32 5.12-26.88 16.64-2.56 11.52 5.12 24.32 16.64 26.88 29.44 6.4 61.44-2.56 83.2-26.88 21.76-24.32 28.16-56.32 17.92-85.76-3.84-11.52-16.64-17.92-28.16-14.08-10.24 3.84-16.64 16.64-12.8 28.16z m131.84-42.24c-3.84-14.08-19.2-21.76-33.28-16.64-14.08 3.84-21.76 19.2-16.64 33.28 14.08 42.24 5.12 89.6-26.88 125.44-32 34.56-79.36 48.64-121.6 39.68-14.08-2.56-28.16 6.4-30.72 20.48-2.56 14.08 6.4 28.16 20.48 30.72 61.44 12.8 126.72-6.4 171.52-55.04 43.52-51.2 56.32-119.04 37.12-177.92z m0 0"  horiz-adv-x="1024" />

    
    <glyph glyph-name="Bag" unicode="&#59299;" d="M874.944559 688.840239h-136.14004c-17.108265 105.735431-120.007445 207.159761-226.900066 207.159761S302.112651 794.57567 285.004386 688.840239H148.864346a63.532019 63.532019 0 0 1-68.07002-62.851318v-685.238201a68.45575 68.45575 0 0 1 68.07002-68.75072h726.080213a68.45575 68.45575 0 0 1 68.07002 68.75072v685.238201a63.532019 63.532019 0 0 1-68.07002 62.851318z m-363.040106 138.409041c68.36499 0 141.812542-70.792821 158.830046-138.409041H353.074406c17.017505 67.61622 90.465057 138.409041 158.830047 138.409041z m363.040106-886.49856H148.864346V620.770219h136.14004v-57.178816a34.03501 34.03501 0 1 1 68.07002 0v57.178816h317.660093v-57.178816a34.03501 34.03501 0 1 1 68.07002 0v57.178816h136.14004v-680.019499z"  horiz-adv-x="1024" />

    
    <glyph glyph-name="xiazai-copy" unicode="&#58883;" d="M512 93.866667L267.377778 338.488889V406.755556l221.866666-221.866667V685.511111h45.511112v-500.622222l221.866666 221.866667v-68.266667L512 93.866667zM512-128c-284.444444 0-512 227.555556-512 512s227.555556 512 512 512 512-227.555556 512-512-227.555556-512-512-512zM512 833.422222C261.688889 833.422222 62.577778 634.311111 62.577778 384s204.8-449.422222 449.422222-449.422222 449.422222 204.8 449.422222 449.422222S762.311111 833.422222 512 833.422222z"  horiz-adv-x="1024" />

    
    <glyph glyph-name="share-" unicode="&#58974;" d="M578.2528 384a24.1664 24.1664 0 0 1-22.6304-23.7568 23.7568 23.7568 0 0 1 22.9376-21.1968c17.2032 0 29.0816 10.24 29.0816 21.1968A26.4192 26.4192 0 0 1 578.56 384z m-75.264 110.7968A27.2384 27.2384 0 0 1 532.48 523.3664a26.8288 26.8288 0 0 1-29.0816 28.5696 30.72 30.72 0 0 1-33.4848-28.5696 30.72 30.72 0 0 1 33.0752-28.5696zM512 885.76a501.76 501.76 0 1 1 501.76-501.76A501.76 501.76 0 0 1 512 885.76z m-94.5152-628.8384a270.336 270.336 0 0 0-80.896 13.1072l-82.944-41.7792 23.7568 70.3488c-58.0608 40.96-92.16 92.7744-92.16 155.3408C184.32 565.0432000000001 289.3824 650.24 416.9728 650.24c112.64 0 213.4016-67.072 232.6528-161.8944a113.2544 113.2544 0 0 1-21.8112 2.4576c-111.2064 0-197.0176-83.456-197.0176-184.32a197.0176 197.0176 0 0 1 6.5536-49.0496 170.9056 170.9056 0 0 0-20.48-0.8192h0.512z m340.8896-79.9744l16.384-59.1872-62.0544 35.1232a355.328 355.328 0 0 0-70.3488-12.288c-109.568 0-196.3008 75.1616-196.3008 168.448S532.48 477.696 642.3552 477.696C745.7792 477.5936 839.68 402.432 839.68 309.14559999999994c0-52.3264-35.1232-98.9184-80.896-132.4032zM341.0944 551.9359999999999c-17.2032 0-35.1232-10.24-35.1232-28.5696s17.92-28.672 35.1232-28.672a28.16 28.16 0 0 1 29.0816 27.2384v1.4336a27.648 27.648 0 0 1-26.624 28.5696h-2.4576zM706.56 384.7168a23.552 23.552 0 0 1-22.9376-23.7568A23.1424 23.1424 0 0 1 706.56 339.7632c16.384 0 28.5696 10.24 28.5696 21.1968A26.2144 26.2144 0 0 1 706.56 384.7168z"  horiz-adv-x="1024" />

    
    <glyph glyph-name="chaoyipu" unicode="&#58891;" d="M646.8 54.8H361.2c-25.7 0-46.5 20.9-46.5 46.5V632.5c0 25.7 20.9 46.5 46.5 46.5h285.6c25.7 0 46.5-20.9 46.5-46.5v-531.1c-0.7-25.7-21.6-46.6-46.5-46.6zM361.2 652.5c-11.2 0-20.9-8.8-20.9-20.9v-531.1c0-11.2 8.8-20.9 20.9-20.9h285.6c11.2 0 20.9 8.8 20.9 20.9V631.7c0 11.2-8.8 20.9-20.9 20.9H361.2zM396.5 493.7c-10.4 0-20.1 4-27.3 11.2-7.2 7.2-11.2 16.8-11.2 27.3v66.6a37.6 37.6 0 0 0 37.7 37.7c10.4 0 20.1-4 27.3-11.2 7.2-7.2 11.2-16.8 11.2-27.3v-66.6a37.6 37.6 0 0 0-37.7-37.7z m0 117.1c-7.2 0-12-5.6-12-12v-66.6c0-3.2 1.6-6.4 3.2-8.8 2.4-2.4 5.6-3.2 8.8-3.2 7.2 0 12 5.6 12 12v66.6c0 3.2-1.6 6.4-3.2 8.8-2.4 1.6-5.6 3.2-8.8 3.2z"  horiz-adv-x="1024" />

    
    <glyph glyph-name="shuaxin" unicode="&#59039;" d="M262.284 317.812c21.27 6.176 43.522-6.054 49.71-27.322 34.444-120.087 161.047-189.533 282.066-154.81 121.064 34.676 191.627 160.721 157.23 280.762C716.847 536.53 590.243 605.93 469.225 571.206l18.339-64.093L303.15 565.2l125.626 146.944 18.385-64.046c163.84 46.964 335.034-47.011 381.626-209.455 46.546-162.443-48.872-332.893-212.666-379.81-163.84-47.011-335.034 46.917-381.673 209.454a40.169 40.169 0 0 0 27.835 49.524zM512-128C229.236-128 0 101.236 0 384S229.236 896 512 896s512-229.236 512-512-229.236-512-512-512z m0 85.318c235.65 0 426.682 191.032 426.682 426.682S747.65 810.682 512 810.682 85.318 619.65 85.318 384 276.35-42.682 512-42.682z"  horiz-adv-x="1024" />

    
    <glyph glyph-name="banshou" unicode="&#58887;" d="M1001.178257 144.887561a16.714363 16.714363 0 0 1-11.938831 13.644379l-127.233825 34.110945a16.373254 16.373254 0 0 1-16.373254-4.434423l-225.814457 225.814457 282.779736 283.461954 32.064288 8.527737a16.714363 16.714363 0 0 1 12.27994 11.938831l14.667707 54.577512a17.737691 17.737691 0 0 1-4.434423 16.373254L916.924223 827.106465a16.373254 16.373254 0 0 1-16.373254 4.434423l-54.577512-14.326597a17.396582 17.396582 0 0 1-11.938831-12.27994l-8.527737-32.064289-284.485282-284.144173-225.814458 227.178895a16.373254 16.373254 0 0 1 4.434423 16.373254L286.895065 861.21741a18.41991 18.41991 0 0 1-12.27994 11.938831L193.772185 895.328355a16.714363 16.714363 0 0 1-16.714364-4.434422l-34.110945-34.110946a17.396582 17.396582 0 0 1 0-23.877661l68.221891-68.221891-34.110946-34.110945-68.22189 67.198562a17.396582 17.396582 0 0 1-24.218771 0l-34.110945-34.110945a17.737691 17.737691 0 0 1-4.434423-16.373254L68.243906 665.761694a17.055473 17.055473 0 0 1 11.938831-11.93883l127.233826-34.110946A16.373254 16.373254 0 0 1 223.107597 622.440794l225.814458-225.814457L364.66802 315.442287H282.119533a18.078801 18.078801 0 0 1-12.62105-5.116641L34.132961 76.665671a111.542791 111.542791 0 0 1-34.110945-80.160721 112.907229 112.907229 0 0 1 34.110945-80.501831l9.892174-9.892174a112.907229 112.907229 0 0 1 80.501831-34.110945A111.542791 111.542791 0 0 1 204.687687-93.889055l235.365522 235.365522a17.396582 17.396582 0 0 1 5.116642 12.62105L443.464303 236.646004l85.618473 85.618472 225.814457-225.814457a17.055473 17.055473 0 0 1-4.434423-16.373253l34.110945-127.233826a17.055473 17.055473 0 0 1 11.938831-11.938831l81.18405-21.831005h4.434422a17.396582 17.396582 0 0 1 11.938831 5.116642l34.110945 34.110945a17.396582 17.396582 0 0 1 5.116642 11.938831 18.078801 18.078801 0 0 1-5.116642 12.27994l-68.562999 64.469687 34.110945 34.110945 66.516343-66.516343a17.055473 17.055473 0 0 1 23.877662 0l34.110945 34.110945a16.373254 16.373254 0 0 1 4.434423 16.373254zM236.410866 661.668381a17.396582 17.396582 0 0 1-18.41991 3.752204 19.443239 19.443239 0 0 1-5.457752-3.752204L204.687687 656.551739l-106.767258 27.629866-16.714363 62.08192 15.349925 15.349925 68.22189-68.22189a17.396582 17.396582 0 0 1 24.218771 0l57.988607 58.329716a17.396582 17.396582 0 0 1 0 24.218771l-68.22189 67.880781 15.691035 15.349926 61.74081-16.714364 28.994304-108.131696-6.13997-6.13997a16.714363 16.714363 0 0 1-6.139971-12.27994 16.032144 16.032144 0 0 1 5.116642-11.938831l238.776617-238.776616-42.297573-42.638682z m176.353587-405.920248a16.032144 16.032144 0 0 1-4.775533-12.621049l1.364438-82.889597-229.566661-230.931099a81.525159 81.525159 0 0 0-112.566119 0L57.328404-59.77811a79.819612 79.819612 0 0 0 0 112.566119L288.600612 281.331342l82.548488-2.728875a15.008816 15.008816 0 0 1 12.621049 4.775532L852.795646 753.767933a19.784348 19.784348 0 0 1 4.434422 7.845517l7.163299 26.606538 34.110945 9.551064 25.924318-25.924318-9.209955-34.110945-26.947646-7.163299a18.078801 18.078801 0 0 1-7.845518-4.434423l-364.987113-367.715989z m559.078391-204.665671l-66.175233 68.221891a17.396582 17.396582 0 0 1-24.218771 0l-58.329717-58.329717a17.055473 17.055473 0 0 1 0-23.877661l66.516343-68.221891-15.349925-15.349925-62.08192 16.714363L784.573755 76.665671l6.48108 6.48108a17.055473 17.055473 0 0 1 0 23.877661l-238.776616 238.776617 42.638681 42.638681 238.776616-238.776616a17.396582 17.396582 0 0 1 24.218771 0l6.13997 6.13997 108.472806-28.994303 16.373254-62.081921z"  horiz-adv-x="1024" />

    
    <glyph glyph-name="wifi" unicode="&#58888;" d="M1211.75588996 552.7842009999999a28.414242 28.414242 0 0 0-18.296366 50.213528q5.457339 4.600401 10.523793 9.651822a165.960223 165.960223 0 0 1 0 234.530255A28.429276 28.429276 0 1 0 1244.18420796 887.380697c86.806262-86.821296 86.806262-228.050605 0-314.856867q-6.78033-6.765296-14.116917-12.944266a28.263903 28.263903 0 0 0-18.296367-6.675092z m0 0M1121.50684396 590.1587010000001a28.429276 28.429276 0 0 0-17.619837 50.739719 114.724383 114.724383 0 0 1 10.012638 8.900122 113.175882 113.175882 0 0 1 0 159.871458 28.432283 28.432283 0 1 0 40.200891 40.215925 170.094571 170.094571 0 0 0 0-240.288274 168.080016 168.080016 0 0 0-15.033991-13.320115 28.29397 28.29397 0 0 0-17.589769-6.118835z m-375.503985-37.3745a28.339072 28.339072 0 0 0-18.311401 6.614955q-7.306519 6.17897-14.101883 12.944266a222.848844 222.848844 0 0 0 0 314.841834 28.429276 28.429276 0 0 0 40.215925-40.140756 165.975257 165.975257 0 0 1 0-234.44005q5.051421-5.051421 10.523793-9.651823a28.429276 28.429276 0 0 0-18.3114-50.168426z m0 0M836.25190496 590.1587010000001a28.233835 28.233835 0 0 0-17.574735 6.103801 170.049469 170.049469 0 0 0-15.033991 253.623423A28.429276 28.429276 0 0 0 843.82903596 809.67a113.220984 113.220984 0 0 1 0-159.886491 119.399954 119.399954 0 0 1 10.012638-8.885089 28.414242 28.414242 0 0 0-17.619837-50.739719zM504.24125396 115.896431H435.95686896a56.903655 56.903655 0 0 0-56.843519 56.843519v68.179148a56.903655 56.903655 0 0 0 56.843519 56.88862h68.284385a56.903655 56.903655 0 0 0 56.858553-56.843518v-68.22425a56.903655 56.903655 0 0 0-56.858553-56.843519z m-68.224249 125.067769v-68.22425h68.224249v68.22425z m323.997533-125.067769h-68.22425a56.903655 56.903655 0 0 0-56.843519 56.843519v68.179148a56.903655 56.903655 0 0 0 56.843519 56.88862h68.22425a56.918689 56.918689 0 0 0 56.933723-56.88862v-68.22425a56.933723 56.933723 0 0 0-56.933723-56.798417z m-68.22425 125.067769v-68.22425h68.254318v68.22425z m0 0M1130.07621896 7.832105999999953H360.63657496A104.756847 104.756847 0 0 0 255.99999996 112.48371499999996V305.77573299999995a104.771881 104.771881 0 0 0 104.636575 104.636576h769.439644a104.771881 104.771881 0 0 0 104.636575-104.636576v-193.292018a104.756847 104.756847 0 0 0-104.636575-104.651609z m-769.439644 345.781786a47.838158 47.838158 0 0 1-47.778022-47.793057v-193.33712a47.853192 47.853192 0 0 1 47.778022-47.80809h769.439644a47.853192 47.853192 0 0 1 47.778022 47.80809V305.76069900000005a47.838158 47.838158 0 0 1-47.778022 47.793057z m0 0M950.43506396 667.5236179999999h56.858553v-285.540586h-56.858553zM978.87937396 621.8503539999999a102.336375 102.336375 0 1 0 102.336375 102.32134 102.441613 102.441613 0 0 0-102.336375-102.32134z m0 147.799162a45.477822 45.477822 0 1 1 45.537958-45.477822 45.537958 45.537958 0 0 1-45.477822 45.477822z m0 0"  horiz-adv-x="1494" />

    
    <glyph glyph-name="circle-7" unicode="&#58889;" d="M512.00249609 834C263.47155928 834 62 632.5534060499999 62 384.00249609 62 135.48279346000004 263.47155928-66 512.00249609-66c248.52594463 0 449.99750391 201.48279346 449.99750391 450.00249609C961.99500693 632.5571510699999 760.52844072 834 512.00249609 834z m0-863.99520644c-228.64616543 0-413.99770342 185.37150938-413.99770254 413.99770253 0 228.65115849 185.35153799 413.99395839 413.99770254 413.99395928 228.64117237 0 413.99271036-185.3427999 413.99271036-413.99395928 0-228.62619317-185.35153799-413.99770342-413.99271036-413.99770253z m74.40749297 570.23983212H402.7748082v25.37960977h218.96716289v-17.41696348c-86.09120068-112.96747354-104.0112123-203.53992451-109.48607754-345.373396h-31.34878594c5.96917617 144.81805957 33.34225606 236.88717364 105.50288145 337.41074971z"  horiz-adv-x="1024" />

    
    <glyph glyph-name="up" unicode="&#58890;" d="M505.173 451.218L341.333 287.451c-14.2629-14.2629-37.3029-14.3604-51.6877 0a36.6202 36.6202 0 0 0-0.0243952 51.6876l189.538 189.562a36.7177 36.7177 0 0 0 51.9803 0l189.538-189.538a36.4495 36.4495 0 0 0-0.0243952-51.6876c-14.2872-14.2872-37.4979-14.2141-51.6876-0.0243952l-163.84 163.791ZM85.333 384c0-235.642 191.025-426.667 426.667-426.667S938.667 148.35799999999995 938.667 384 747.642 810.665 512 810.665 85.333 619.642 85.333 384Zm-36.5714 0C48.76 639.831 256.169 847.24 512 847.238S975.24 639.831 975.238 384s-207.409-463.238-463.238-463.238-463.238 207.409-463.238 463.238Z"  horiz-adv-x="1024" />

    
    <glyph glyph-name="nubiya" unicode="&#58894;" d="M663.22568533 377.62601717999996c-0.40777955-29.60649482-6.97594311-54.84999111-23.4084883-76.69046993-14.68491852-19.51516445-33.40758282-34.03138845-58.33674903-36.73656888-19.27001125-2.08987022-37.91500325 1.20149333-54.27230342 13.50405688-15.93374341 11.98459259-29.45600475 25.91584711-36.77297777 44.54506193-4.28653985 10.91417125-6.76598518 22.63419259-9.10100859 34.18551941-1.41266489 6.98929303-1.30222459 14.34631585-1.34106074 21.5407123-0.14684918 26.968064 8.69322903 50.77462282 25.1949511 72.0446957 13.40575289 17.27844503 30.9863917 27.77755497 52.00524327 32.10171733 22.37447585 4.60572445 42.97462518-1.12260741 61.39630933-14.20674844 16.90343348-12.00765155 28.05426252-28.66350459 35.99261393-47.52694993 6.07907082-14.44583348 8.13010489-29.75213037 8.64347022-42.76102637z m-89.13138725-67.96325926c3.86905125 1.14323911 11.23214222 2.03404325 17.28087228 5.33511586 23.09537185 12.59990282 33.13208889 33.65394963 33.76438994 58.91322311 0.24393955 9.7770003-2.24521482 20.24819675-6.01110756 29.35891436-6.40796445 15.50169125-17.99327289 27.38676622-34.275328 32.41362016-19.64987733 6.06572089-37.9004397-0.41142045-50.18601244-15.30508326-20.07586133-24.34176948-23.50921955-52.34384592-8.1058323-80.94788267 9.39106608-17.43985778 23.51892859-28.68656355 47.53301808-29.76790756zM938.71475674 366.13537184999996c-0.51943348-13.91305008-3.44428089-35.23045452-15.98228859-53.52834844-8.99420918-13.1278317-18.56853333-26.31634489-32.08958104-35.28264059-17.32092208-11.4894317-36.62006045-14.68734578-57.1352557-11.21393779-28.20475259 4.77441897-47.11795675 21.48609897-61.3659686 45.43707972-8.37283082 14.07446282-14.37908385 28.91593955-16.40099081 44.8108468-3.99041422 31.36747141 1.35076978 60.85381689 21.48245808 86.55727882 9.10100859 11.6205037 17.4204397 23.99709867 30.98517807 30.97668266 22.51404325 11.58166755 45.48441125 16.73595259 69.63806815 4.32416238 20.41082311-10.48940089 35.12122785-26.411008 46.45652858-46.104576 10.42750578-18.11949037 14.680064-37.53028267 14.41185186-65.97654756z m-145.96809008 7.80970667c0.32889363-3.9855597 0.48302459-7.99417837 1.015808-11.9518246 2.1420563-15.93131615 10.30735645-28.42927408 22.04194134-39.04489244 22.42666192-20.29188741 48.32673185-15.58300445 67.08216415 3.54015763 16.57453985 16.89857897 21.26764563 38.13467022 16.91435615 61.24217837-3.64210252 19.32583822-14.94463525 33.54715022-31.20605867 43.82537955-8.62041125 5.44919703-18.11706311 6.49898667-28.53364622 4.89578194-13.88999111-2.13720178-24.76411259-9.33402548-33.15514786-19.27243852-10.21269333-12.09503289-14.18490311-27.21321718-14.15941689-43.23434193zM67.30441008 332.85643378c0 15.16794311-0.76094578 30.38079052 0.15655822 45.49290667 1.98913897 32.77892267 12.025856 62.46308978 37.40649244 84.9431514 16.27841422 14.41792 35.59697067 22.08441837 57.48842192 20.03581156 22.26403555-2.08258845 40.41265303-12.15935525 54.94101334-29.82009363 11.49185897-13.97251792 20.08921125-29.01667082 24.03229392-46.497792 1.91510755-8.49055289 2.92363378-17.35126282 3.01951052-26.05784178 0.34952533-31.54466133 0.0121363-63.09660445 0.19175348-94.64490667 0.08495408-14.8973037-7.06939259-14.33053867-16.52599467-10.39231051-15.106048 6.29388325-21.80528355 18.68140089-22.20335407 34.19401481-0.58618311 22.83808237-0.1104403 45.70165097-0.16384 68.55429689-0.04854518 20.69117155-7.34731378 38.08005689-24.17307496 50.67753245-12.46761718 9.33523911-26.14522311 10.17385718-40.56192948 4.74893273-18.76514133-7.06089718-27.40011615-21.77737008-31.15023171-40.3459034-4.63485155-22.95337718-1.37746963-46.18467555-2.47701807-69.25820208-0.45389748-9.52941985-0.33253452-19.3452563-2.68333511-28.46204207-3.16393245-12.27465008-13.21035852-18.89378608-24.9243117-22.19849956-7.99417837-2.25371022-12.37052682 1.92724385-12.37174045 10.49304178-0.00242725 16.18011022-0.00121363 32.35900682-0.00121362 48.53790341zM445.94714548 412.23630697c0-16.38278637 0.59103763-32.79105897-0.12136297-49.14107734-1.54980503-35.56905718-15.71286282-64.51533748-45.09240888-85.94682311-13.35963497-9.7442323-27.99236741-13.99800415-43.74649363-14.2662163-14.84511763-0.25243497-28.0943123 6.04023467-40.25488119 14.33053867-19.83313541 13.52347497-32.8869357 32.26070282-39.98424178 54.84999111-3.11417363 9.91171318-5.10695348 20.56859497-5.30962962 30.93177837-0.65536 33.56050015-0.24758045 67.14284563-0.24272593 100.71548208 0.00121363 8.87648711 0.08495408 8.16408652 8.47598933 9.03547258 15.23590637 1.5850003 28.58704592-14.6922003 29.02152534-28.31883378 0.80220918-25.18524208 1.03401245-50.39111585 1.29494281-75.58970784 0.23908503-23.068672 9.34494815-41.418752 29.32978726-53.20673659 7.10580148-4.19066311 15.80267141-5.64216415 24.29807881-4.25862637 26.95714133 4.390912 42.14328889 26.82849659 43.29380978 50.09741747 1.3228563 26.771456 1.01338075 53.62301155 1.42601482 80.43815823 0.16869452 10.92509392 9.1871763 27.49113837 21.58925748 29.77033482a47.79030755 47.79030755 0 0 0 13.08899555 0.58132858c1.14081185-0.10922667 2.78163911-3.51224415 2.80469808-5.42006992 0.21359882-18.19716267 0.12864475-36.40039348 0.12864474-54.60241066zM689.89641008 361.76873245c0 28.70234075-0.26821215 57.409536 0.12257658 86.10702222 0.1759763 12.93001008 5.03656297 24.44978252 16.82090667 30.87595141 5.05355378 2.75615289 11.763712 2.98674252 17.77603318 3.28772267 3.63360711 0.18204445 4.15910875-3.45884445 4.14454519-6.7623443-0.07888592-18.59523318-0.03762252-37.19289363-0.03762252-55.78812682 0-36.38340267 0.20388978-72.77044622-0.15898548-109.15142163-0.08009955-8.02209185-1.32892445-16.26627792-3.52923496-23.98374875-3.44549452-12.07440118-12.28314548-18.98966282-24.63910874-21.2215277-6.84365748-1.23668859-10.46998282 1.96243911-10.48211912 9.31460742-0.04247703 29.10769303-0.01699082 58.21417245-0.0169908 87.32186548zM480.99919644 456.25829452c-12.62174815 0.56797867-19.03942163 6.58151348-21.74096119 20.82345718-2.76343467 14.57690548 4.19673125 26.55907082 17.80758756 31.00459615 8.22962252 2.686976 13.77348267-1.50125985 18.68018727-7.07546074 13.29409897-15.09997985 8.44079408-34.48043141-5.61789157-42.63966341-2.58260385-1.49883259-6.06208-1.44786015-9.12892207-2.11292918zM937.13461096 292.27387259c14.06475378-0.5121517 25.75079348-15.92160711 21.71183407-30.09922844-1.66631348-5.85090845-4.88121837-11.70909867-8.80973748-16.36943645-6.8036077-8.07427792-15.37547378-8.81580563-23.75194547-2.42604562-16.15098311 12.320768-15.34270578 36.80331852 2.2986145 46.8873671 2.43575467 1.39324682 5.67978667 1.37261511 8.55123438 2.00734341z"  horiz-adv-x="1024" />

    
    <glyph glyph-name="xiangce" unicode="&#58900;" d="M252.64 478.56a115.68 115.68 0 0 1 0 231.36 115.68 115.68 0 0 1 0-231.36z m0 179.68a64 64 0 1 0-62.24-64 63.04 63.04 0 0 0 62.24 64zM848 185.60000000000002v136.48a26.88 26.88 0 0 1-4.48 14.72l-169.6 252.32a24.8 24.8 0 0 1-40.64 1.12l-119.36-159.04-46.88 51.52a24.8 24.8 0 0 1-37.6-0.8L272 292.15999999999997l-52.32 48.96a24.48 24.48 0 0 1-19.04 6.72 25.28 25.28 0 0 1-17.76-9.92l-104-136.32a26.4 26.4 0 0 1-2.88-27.2 25.12 25.12 0 0 1 22.72-14.4h724.8a24.8 24.8 0 0 1 17.76 7.52A26.24 26.24 0 0 1 848 185.60000000000002z m-50.4 25.92H150.56l55.36 72.64 51.36-48a24.64 24.64 0 0 1 36.16 2.24l156 187.84 48-52.64a24.8 24.8 0 0 1 38.4 1.76l116.48 155.2 146.24-216.48z m0 0M926.72 186.72000000000003V687.04c0 62.4-44.48 112.96-99.04 112.96H99.04C44.48 800 0 749.28 0 687.04v-500.32c0-62.4 44.48-112.96 99.04-112.96h728.48c54.56 0 99.04 50.72 99.04 112.96z m-875.84 0V687.04c0 32 21.6 59.52 48 59.52h728.64c26.56 0 48-26.72 48-59.52v-500.32c0-32-21.6-59.52-48-59.52H99.04c-26.56 0-48 26.72-48 59.36z m0 0M964.16 684.96v-69.28a56 56 0 0 0 8.8-34.4v-500.32c0-32-21.6-59.52-48-59.52H196.48a33.12 33.12 0 0 0-33.28 16H104.96A88.8 88.8 0 0 1 196.48-32h728.48c54.56 0 99.04 50.72 99.04 112.96V581.28a112 112 0 0 1-59.84 103.68z m0 0"  horiz-adv-x="1024" />

    
    <glyph glyph-name="shujuxian" unicode="&#58990;" d="M333.824 348.672h-286.72c-5.632 0-10.24 4.608-10.24 10.24v286.72c0 5.632 4.608 10.24 10.24 10.24h286.72c5.632 0 10.24-4.608 10.24-10.24v-286.72c0-5.632-4.608-10.24-10.24-10.24zM333.824 323.072h-286.72c-19.968 0-35.84 15.872-35.84 35.84v286.72c0 19.968 15.872 35.84 35.84 35.84h286.72c19.968 0 35.84-15.872 35.84-35.84v-286.72c0-19.456-16.384-35.84-35.84-35.84z m-271.36 51.2h256v256h-256v-256zM287.744 632.832h-194.56c-16.896 0-30.72 13.824-30.72 30.72v194.56c0 16.896 13.824 30.72 30.72 30.72h194.56c16.896 0 30.72-13.824 30.72-30.72v-194.56c0-16.896-13.824-30.72-30.72-30.72z m-174.08 51.2h153.6v153.6h-153.6v-153.6zM236.544 217.6h-92.16c-16.896 0-30.72 13.824-30.72 30.72v92.16c0 16.896 13.824 30.72 30.72 30.72h92.16c16.896 0 30.72-13.824 30.72-30.72v-92.16c0-16.896-13.824-30.72-30.72-30.72z m-71.68 51.2h51.2v51.2h-51.2v-51.2zM978.944 27.648h-235.52c-5.632 0-10.24 4.608-10.24 10.24v184.32c0 5.632 4.608 10.24 10.24 10.24h235.52c5.632 0 10.24-4.608 10.24-10.24v-184.32c0-5.632-4.608-10.24-10.24-10.24zM978.944 2.048h-235.52c-19.968 0-35.84 15.872-35.84 35.84v184.32c0 19.968 15.872 35.84 35.84 35.84h235.52c19.968 0 35.84-15.872 35.84-35.84v-184.32c0-19.456-16.384-35.84-35.84-35.84z m-220.16 51.2h204.8v153.6h-204.8v-153.6zM932.864-125.952h-143.36c-16.896 0-30.72 13.824-30.72 30.72v117.76c0 16.896 13.824 30.72 30.72 30.72h143.36c16.896 0 30.72-13.824 30.72-30.72v-117.76c0-16.896-13.824-30.72-30.72-30.72z m-122.88 51.2h102.4v76.8h-102.4v-76.8zM164.864 789.504h51.2v-131.072h-51.2zM710.144 890.88h-35.84c-95.744 0-174.08-77.824-174.08-174.08v-665.6c0-67.584-55.296-122.88-122.88-122.88h-35.84c-67.584 0-122.88 55.296-122.88 122.88v184.32h-51.2v-184.32c0-95.744 77.824-174.08 174.08-174.08h35.84c95.744 0 174.08 77.824 174.08 174.08V716.8c0 67.584 55.296 122.88 122.88 122.88h35.84c67.584 0 122.88-55.296 122.88-122.88v-473.6h51.2V716.8c0 96.256-78.336 174.08-174.08 174.08z"  horiz-adv-x="1024" />

    


  </font>
</defs>
</svg>
